G04 EAGLE Gerber RS-274X export*
G75*
%MOMM*%
%FSLAX34Y34*%
%LPD*%
%IN*%
%IPPOS*%
%AMOC8*
5,1,8,0,0,1.08239X$1,22.5*%
G01*
G04 Define Apertures*
%ADD10C,0.254000*%
D10*
X1012900Y-756100D02*
X1042900Y-786100D01*
X1332900Y-786100D01*
X1362900Y-756100D01*
X1362900Y-26100D01*
X1332900Y3900D01*
X1042900Y3900D01*
X1012900Y-26100D01*
X1012900Y-756100D01*
X1257900Y-41636D02*
X1257900Y-40564D01*
X1257824Y-39496D01*
X1257671Y-38435D01*
X1257443Y-37388D01*
X1257141Y-36360D01*
X1256767Y-35356D01*
X1256322Y-34381D01*
X1255808Y-33441D01*
X1255229Y-32540D01*
X1254587Y-31682D01*
X1253885Y-30872D01*
X1253128Y-30115D01*
X1252318Y-29413D01*
X1251460Y-28771D01*
X1250559Y-28192D01*
X1249619Y-27678D01*
X1248644Y-27233D01*
X1247640Y-26859D01*
X1246612Y-26557D01*
X1245565Y-26329D01*
X1244504Y-26176D01*
X1243436Y-26100D01*
X1242364Y-26100D01*
X1241296Y-26176D01*
X1240235Y-26329D01*
X1239188Y-26557D01*
X1238160Y-26859D01*
X1237156Y-27233D01*
X1236181Y-27678D01*
X1235241Y-28192D01*
X1234340Y-28771D01*
X1233482Y-29413D01*
X1232672Y-30115D01*
X1231915Y-30872D01*
X1231213Y-31682D01*
X1230571Y-32540D01*
X1229992Y-33441D01*
X1229478Y-34381D01*
X1229033Y-35356D01*
X1228659Y-36360D01*
X1228357Y-37388D01*
X1228129Y-38435D01*
X1227976Y-39496D01*
X1227900Y-40564D01*
X1227900Y-41636D01*
X1227976Y-42704D01*
X1228129Y-43765D01*
X1228357Y-44812D01*
X1228659Y-45840D01*
X1229033Y-46844D01*
X1229478Y-47819D01*
X1229992Y-48759D01*
X1230571Y-49660D01*
X1231213Y-50518D01*
X1231915Y-51328D01*
X1232672Y-52085D01*
X1233482Y-52787D01*
X1234340Y-53429D01*
X1235241Y-54008D01*
X1236181Y-54522D01*
X1237156Y-54967D01*
X1238160Y-55341D01*
X1239188Y-55643D01*
X1240235Y-55871D01*
X1241296Y-56024D01*
X1242364Y-56100D01*
X1243436Y-56100D01*
X1244504Y-56024D01*
X1245565Y-55871D01*
X1246612Y-55643D01*
X1247640Y-55341D01*
X1248644Y-54967D01*
X1249619Y-54522D01*
X1250559Y-54008D01*
X1251460Y-53429D01*
X1252318Y-52787D01*
X1253128Y-52085D01*
X1253885Y-51328D01*
X1254587Y-50518D01*
X1255229Y-49660D01*
X1255808Y-48759D01*
X1256322Y-47819D01*
X1256767Y-46844D01*
X1257141Y-45840D01*
X1257443Y-44812D01*
X1257671Y-43765D01*
X1257824Y-42704D01*
X1257900Y-41636D01*
X1257900Y-741636D02*
X1257900Y-740564D01*
X1257824Y-739496D01*
X1257671Y-738435D01*
X1257443Y-737388D01*
X1257141Y-736360D01*
X1256767Y-735356D01*
X1256322Y-734381D01*
X1255808Y-733441D01*
X1255229Y-732540D01*
X1254587Y-731682D01*
X1253885Y-730872D01*
X1253128Y-730115D01*
X1252318Y-729413D01*
X1251460Y-728771D01*
X1250559Y-728192D01*
X1249619Y-727678D01*
X1248644Y-727233D01*
X1247640Y-726859D01*
X1246612Y-726557D01*
X1245565Y-726329D01*
X1244504Y-726176D01*
X1243436Y-726100D01*
X1242364Y-726100D01*
X1241296Y-726176D01*
X1240235Y-726329D01*
X1239188Y-726557D01*
X1238160Y-726859D01*
X1237156Y-727233D01*
X1236181Y-727678D01*
X1235241Y-728192D01*
X1234340Y-728771D01*
X1233482Y-729413D01*
X1232672Y-730115D01*
X1231915Y-730872D01*
X1231213Y-731682D01*
X1230571Y-732540D01*
X1229992Y-733441D01*
X1229478Y-734381D01*
X1229033Y-735356D01*
X1228659Y-736360D01*
X1228357Y-737388D01*
X1228129Y-738435D01*
X1227976Y-739496D01*
X1227900Y-740564D01*
X1227900Y-741636D01*
X1227976Y-742704D01*
X1228129Y-743765D01*
X1228357Y-744812D01*
X1228659Y-745840D01*
X1229033Y-746844D01*
X1229478Y-747819D01*
X1229992Y-748759D01*
X1230571Y-749660D01*
X1231213Y-750518D01*
X1231915Y-751328D01*
X1232672Y-752085D01*
X1233482Y-752787D01*
X1234340Y-753429D01*
X1235241Y-754008D01*
X1236181Y-754522D01*
X1237156Y-754967D01*
X1238160Y-755341D01*
X1239188Y-755643D01*
X1240235Y-755871D01*
X1241296Y-756024D01*
X1242364Y-756100D01*
X1243436Y-756100D01*
X1244504Y-756024D01*
X1245565Y-755871D01*
X1246612Y-755643D01*
X1247640Y-755341D01*
X1248644Y-754967D01*
X1249619Y-754522D01*
X1250559Y-754008D01*
X1251460Y-753429D01*
X1252318Y-752787D01*
X1253128Y-752085D01*
X1253885Y-751328D01*
X1254587Y-750518D01*
X1255229Y-749660D01*
X1255808Y-748759D01*
X1256322Y-747819D01*
X1256767Y-746844D01*
X1257141Y-745840D01*
X1257443Y-744812D01*
X1257671Y-743765D01*
X1257824Y-742704D01*
X1257900Y-741636D01*
M02*
