G04 EAGLE Gerber RS-274X export*
G75*
%MOMM*%
%FSLAX34Y34*%
%LPD*%
%INSilkscreen Top*%
%IPPOS*%
%AMOC8*
5,1,8,0,0,1.08239X$1,22.5*%
G01*
G04 Define Apertures*
%ADD10C,0.127000*%
G36*
X1031867Y-443836D02*
X1029988Y-443836D01*
X1029988Y-439427D01*
X1016673Y-439427D01*
X1019461Y-443333D01*
X1017373Y-443333D01*
X1014560Y-439243D01*
X1014560Y-437203D01*
X1029988Y-437203D01*
X1029988Y-432990D01*
X1031867Y-432990D01*
X1031867Y-443836D01*
G37*
G36*
X1027568Y-457953D02*
X1027187Y-455656D01*
X1027534Y-455592D01*
X1027860Y-455511D01*
X1028168Y-455413D01*
X1028455Y-455297D01*
X1028723Y-455164D01*
X1028972Y-455014D01*
X1029201Y-454846D01*
X1029410Y-454661D01*
X1029597Y-454462D01*
X1029760Y-454250D01*
X1029897Y-454026D01*
X1030009Y-453789D01*
X1030097Y-453541D01*
X1030159Y-453280D01*
X1030196Y-453006D01*
X1030209Y-452721D01*
X1030195Y-452410D01*
X1030154Y-452116D01*
X1030085Y-451839D01*
X1029989Y-451578D01*
X1029866Y-451335D01*
X1029715Y-451108D01*
X1029536Y-450899D01*
X1029331Y-450706D01*
X1029098Y-450533D01*
X1028840Y-450384D01*
X1028557Y-450257D01*
X1028248Y-450153D01*
X1027914Y-450073D01*
X1027554Y-450015D01*
X1027168Y-449981D01*
X1026757Y-449969D01*
X1016476Y-449969D01*
X1016476Y-453298D01*
X1014560Y-453298D01*
X1014560Y-447635D01*
X1026708Y-447635D01*
X1027321Y-447657D01*
X1027900Y-447721D01*
X1028445Y-447827D01*
X1028957Y-447976D01*
X1029436Y-448168D01*
X1029881Y-448402D01*
X1030292Y-448679D01*
X1030669Y-448999D01*
X1031008Y-449355D01*
X1031301Y-449744D01*
X1031549Y-450163D01*
X1031752Y-450614D01*
X1031910Y-451097D01*
X1032022Y-451611D01*
X1032090Y-452156D01*
X1032113Y-452733D01*
X1032095Y-453269D01*
X1032042Y-453776D01*
X1031953Y-454256D01*
X1031829Y-454708D01*
X1031669Y-455132D01*
X1031474Y-455528D01*
X1031243Y-455897D01*
X1030976Y-456237D01*
X1030675Y-456549D01*
X1030337Y-456833D01*
X1029965Y-457090D01*
X1029556Y-457318D01*
X1029112Y-457519D01*
X1028633Y-457692D01*
X1028118Y-457837D01*
X1027568Y-457953D01*
G37*
D10*
X1039400Y-456433D02*
X1104400Y-456433D01*
X1104400Y-350233D01*
X1039400Y-350233D01*
X1039400Y-456433D01*
X1070900Y-460483D02*
X1070902Y-460420D01*
X1070908Y-460358D01*
X1070918Y-460296D01*
X1070931Y-460234D01*
X1070949Y-460174D01*
X1070970Y-460115D01*
X1070995Y-460057D01*
X1071024Y-460001D01*
X1071056Y-459947D01*
X1071091Y-459895D01*
X1071129Y-459846D01*
X1071171Y-459798D01*
X1071215Y-459754D01*
X1071263Y-459712D01*
X1071312Y-459674D01*
X1071364Y-459639D01*
X1071418Y-459607D01*
X1071474Y-459578D01*
X1071532Y-459553D01*
X1071591Y-459532D01*
X1071651Y-459514D01*
X1071713Y-459501D01*
X1071775Y-459491D01*
X1071837Y-459485D01*
X1071900Y-459483D01*
X1071963Y-459485D01*
X1072025Y-459491D01*
X1072087Y-459501D01*
X1072149Y-459514D01*
X1072209Y-459532D01*
X1072268Y-459553D01*
X1072326Y-459578D01*
X1072382Y-459607D01*
X1072436Y-459639D01*
X1072488Y-459674D01*
X1072537Y-459712D01*
X1072585Y-459754D01*
X1072629Y-459798D01*
X1072671Y-459846D01*
X1072709Y-459895D01*
X1072744Y-459947D01*
X1072776Y-460001D01*
X1072805Y-460057D01*
X1072830Y-460115D01*
X1072851Y-460174D01*
X1072869Y-460234D01*
X1072882Y-460296D01*
X1072892Y-460358D01*
X1072898Y-460420D01*
X1072900Y-460483D01*
X1072898Y-460546D01*
X1072892Y-460608D01*
X1072882Y-460670D01*
X1072869Y-460732D01*
X1072851Y-460792D01*
X1072830Y-460851D01*
X1072805Y-460909D01*
X1072776Y-460965D01*
X1072744Y-461019D01*
X1072709Y-461071D01*
X1072671Y-461120D01*
X1072629Y-461168D01*
X1072585Y-461212D01*
X1072537Y-461254D01*
X1072488Y-461292D01*
X1072436Y-461327D01*
X1072382Y-461359D01*
X1072326Y-461388D01*
X1072268Y-461413D01*
X1072209Y-461434D01*
X1072149Y-461452D01*
X1072087Y-461465D01*
X1072025Y-461475D01*
X1071963Y-461481D01*
X1071900Y-461483D01*
X1071837Y-461481D01*
X1071775Y-461475D01*
X1071713Y-461465D01*
X1071651Y-461452D01*
X1071591Y-461434D01*
X1071532Y-461413D01*
X1071474Y-461388D01*
X1071418Y-461359D01*
X1071364Y-461327D01*
X1071312Y-461292D01*
X1071263Y-461254D01*
X1071215Y-461212D01*
X1071171Y-461168D01*
X1071129Y-461120D01*
X1071091Y-461071D01*
X1071056Y-461019D01*
X1071024Y-460965D01*
X1070995Y-460909D01*
X1070970Y-460851D01*
X1070949Y-460792D01*
X1070931Y-460732D01*
X1070918Y-460670D01*
X1070908Y-460608D01*
X1070902Y-460546D01*
X1070900Y-460483D01*
X1144300Y-480700D02*
X1144300Y-633100D01*
X1144300Y-480700D02*
X1347500Y-480700D01*
X1347500Y-633100D01*
X1144300Y-633100D01*
X1144300Y-468000D02*
X1144300Y-315600D01*
X1347500Y-315600D01*
X1347500Y-468000D01*
X1144300Y-468000D01*
X1144300Y-302900D02*
X1144300Y-150500D01*
X1347500Y-150500D01*
X1347500Y-302900D01*
X1144300Y-302900D01*
M02*
