M48
;GenerationSoftware,Autodesk,EAGLE,9.7.0*%
;CreationDate,2025-05-23T15:09:22Z*%
FMAT,2
ICI,OFF
METRIC,TZ,000.000
T11C0.350
T10C0.700
T9C0.710
T8C0.780
T7C0.900
T6C1.016
T5C1.050
T4C1.060
T3C1.118
T2C1.340
T1C3.000
%
G90
M71
T1
X33200Y69600
X23800Y15300
T2
X15380Y49000
X25700Y27800
X23160Y27800
X20620Y27800
X10300Y49000
X12840Y49000
T3
X46030Y37900
X48570Y37900
X51110Y37900
X51110Y45520
X48570Y45520
X46030Y45520
X43490Y45520
X43490Y37900
T4
X37540Y13000
X40080Y13000
X42620Y13100
X35000Y21000
X37540Y21000
X40080Y21000
X12100Y66380
X20300Y10220
X20300Y20580
X27700Y20580
X37580Y39045
X37580Y49405
X31190Y48955
X31190Y38595
X27700Y10220
X8300Y66405
X8300Y56045
X12100Y56020
X42620Y21100
X35000Y13000
T5
X27250Y62800
X19750Y62800
T6
X11437Y42800
X8897Y42800
X11437Y24300
X8897Y24300
X13977Y24300
X13977Y42800
T7
X21700Y38590
X22600Y3500
X25140Y3500
X27680Y3500
X30220Y3600
X27105Y75000
X24565Y75000
X3000Y75000
X5540Y75000
X32450Y33020
X43270Y33020
X43270Y29030
X32450Y29030
X4000Y14635
X4000Y25455
X8080Y75000
X10620Y75100
X44500Y75000
X47040Y75000
X49580Y75000
X52120Y3600
X52120Y75100
X26700Y38590
X50300Y14635
X26700Y49410
X4000Y46660
X4000Y35840
X4000Y66760
X4000Y55940
X21700Y49410
X35340Y65700
X46160Y65700
X49580Y3500
X50300Y25455
X9630Y16700
X12170Y16700
X3000Y3500
X5540Y3500
X8080Y3500
X10620Y3600
X44500Y3500
X47040Y3500
T8
X7630Y39010
X7630Y36470
X7630Y33930
X7630Y31390
X15570Y33930
X15570Y36470
X15570Y39010
X15570Y31390
T9
X40040Y60400
X34960Y60400
X37540Y54400
X35000Y54400
X32460Y54400
T10
X49080Y30140
X49080Y32640
X47300Y57920
X47300Y60420
X46387Y50800
X48887Y50800
X39170Y3750
X36630Y3750
X37870Y75000
X15530Y3750
X18070Y3750
X35330Y75000
T11
X43600Y55200
X42800Y50400
X32300Y58600
X39200Y35800
X52300Y59700
M30