G04 EAGLE Gerber RS-274X export*
G75*
%MOMM*%
%FSLAX34Y34*%
%LPD*%
%INTop Copper*%
%IPPOS*%
%AMOC8*
5,1,8,0,0,1.08239X$1,22.5*%
G01*
G04 Define Apertures*
%ADD10C,2.800000*%
%ADD11R,3.302000X3.302000*%
%ADD12C,3.302000*%
%ADD13R,3.810000X3.810000*%
%ADD14C,3.810000*%
%ADD15C,1.800000*%
%ADD16R,2.540000X2.540000*%
%ADD17C,2.540000*%
%ADD18C,2.000000*%
%ADD19R,1.900000X1.900000*%
%ADD20C,1.900000*%
%ADD21R,2.000000X2.000000*%
%ADD22C,1.000000*%
%ADD23C,3.000000*%
D10*
X355600Y64800D02*
X355600Y36800D01*
X316000Y36800D02*
X316000Y64800D01*
D11*
X558800Y355600D03*
D12*
X609600Y355600D03*
D11*
X673100Y76200D03*
D12*
X723900Y76200D03*
D13*
X489559Y77332D03*
D14*
X540359Y77332D03*
X591159Y77332D03*
D15*
X117700Y513000D03*
X66900Y513000D03*
X1283300Y101200D03*
X1283300Y50400D03*
X1282700Y228600D03*
X1282700Y177800D03*
X1282700Y342900D03*
X1282700Y292100D03*
X787400Y228600D03*
X787400Y177800D03*
X787400Y101600D03*
X787400Y50800D03*
X609600Y279400D03*
X558800Y279400D03*
X508000Y177800D03*
X457200Y177800D03*
D13*
X850900Y76200D03*
D14*
X901700Y76200D03*
X952500Y76200D03*
D13*
X850900Y203200D03*
D14*
X901700Y203200D03*
X952500Y203200D03*
D13*
X1054100Y203200D03*
D14*
X1104900Y203200D03*
X1155700Y203200D03*
X1206500Y203200D03*
D13*
X1054100Y317500D03*
D14*
X1104900Y317500D03*
X1155700Y317500D03*
X1206500Y317500D03*
D16*
X109700Y47900D03*
D17*
X169700Y47900D03*
X49700Y383900D03*
X229700Y383900D03*
D18*
X228600Y659500D03*
X387600Y659500D03*
X203200Y610000D03*
X362200Y610000D03*
D13*
X1054100Y76200D03*
D14*
X1104900Y76200D03*
X1155700Y76200D03*
X1206500Y76200D03*
D18*
X101600Y457200D03*
X127000Y457200D03*
X152400Y457200D03*
X177800Y457200D03*
X203200Y457200D03*
X228600Y457200D03*
X254000Y457200D03*
X279400Y457200D03*
X304800Y457200D03*
X330200Y457200D03*
X355600Y457200D03*
X381000Y457200D03*
X406400Y457200D03*
X431800Y457200D03*
X457200Y457200D03*
X482600Y457200D03*
X101600Y762000D03*
X127000Y762000D03*
X152400Y762000D03*
X177800Y762000D03*
X203200Y762000D03*
X228600Y762000D03*
X254000Y762000D03*
X279400Y762000D03*
X304800Y762000D03*
X330200Y762000D03*
X355600Y762000D03*
X381000Y762000D03*
X406400Y762000D03*
X431800Y762000D03*
X457200Y762000D03*
X482600Y762000D03*
D19*
X723900Y558800D03*
D20*
X749300Y558800D03*
X774700Y558800D03*
X800100Y558800D03*
X825500Y558800D03*
X850900Y558800D03*
X876300Y558800D03*
X901700Y558800D03*
X927100Y558800D03*
X927100Y635000D03*
X901700Y635000D03*
X876300Y635000D03*
X850900Y635000D03*
X825500Y635000D03*
X800100Y635000D03*
X774700Y635000D03*
X749300Y635000D03*
X723900Y635000D03*
D21*
X1191300Y670900D03*
D18*
X1191300Y747100D03*
X1216700Y670900D03*
X1216700Y747100D03*
X427000Y558000D03*
X586000Y558000D03*
X427000Y607000D03*
X586000Y607000D03*
D22*
X387600Y635400D02*
X387593Y634786D01*
X387570Y634173D01*
X387533Y633560D01*
X387481Y632949D01*
X387415Y632338D01*
X387333Y631730D01*
X387237Y631124D01*
X387127Y630520D01*
X387002Y629919D01*
X386862Y629321D01*
X386708Y628727D01*
X386539Y628137D01*
X386357Y627551D01*
X386160Y626970D01*
X385949Y626393D01*
X385725Y625822D01*
X385487Y625256D01*
X385235Y624696D01*
X384969Y624143D01*
X384691Y623596D01*
X384399Y623056D01*
X384094Y622523D01*
X383776Y621998D01*
X383446Y621480D01*
X383104Y620971D01*
X382749Y620470D01*
X382382Y619978D01*
X382004Y619495D01*
X381614Y619021D01*
X381212Y618557D01*
X380800Y618102D01*
X380376Y617658D01*
X379942Y617224D01*
X379498Y616800D01*
X379043Y616388D01*
X378579Y615986D01*
X378105Y615596D01*
X377622Y615218D01*
X377130Y614851D01*
X376629Y614496D01*
X376120Y614154D01*
X375602Y613824D01*
X375077Y613506D01*
X374544Y613201D01*
X374004Y612909D01*
X373457Y612631D01*
X372904Y612365D01*
X372344Y612113D01*
X371778Y611875D01*
X371207Y611651D01*
X370630Y611440D01*
X370049Y611243D01*
X369463Y611061D01*
X368873Y610892D01*
X368279Y610738D01*
X367681Y610598D01*
X367080Y610473D01*
X366476Y610363D01*
X365870Y610267D01*
X365262Y610185D01*
X364651Y610119D01*
X364040Y610067D01*
X363427Y610030D01*
X362814Y610007D01*
X362200Y610000D01*
X387600Y635400D02*
X387600Y659500D01*
X387600Y660400D01*
X402600Y678000D02*
X611400Y678000D01*
X909700Y678000D01*
X910120Y677995D01*
X910541Y677980D01*
X910960Y677954D01*
X911379Y677919D01*
X911797Y677873D01*
X912214Y677817D01*
X912629Y677752D01*
X913043Y677676D01*
X913455Y677590D01*
X913864Y677494D01*
X914271Y677389D01*
X914675Y677273D01*
X915077Y677148D01*
X915475Y677014D01*
X915870Y676869D01*
X916261Y676715D01*
X916649Y676552D01*
X917032Y676380D01*
X917412Y676198D01*
X917786Y676007D01*
X918156Y675807D01*
X918521Y675598D01*
X918881Y675381D01*
X919235Y675155D01*
X919584Y674920D01*
X919927Y674677D01*
X920265Y674426D01*
X920596Y674166D01*
X920920Y673899D01*
X921238Y673624D01*
X921550Y673341D01*
X921854Y673051D01*
X922151Y672754D01*
X922441Y672450D01*
X922724Y672138D01*
X922999Y671820D01*
X923266Y671496D01*
X923526Y671165D01*
X923777Y670827D01*
X924020Y670484D01*
X924255Y670135D01*
X924481Y669781D01*
X924698Y669421D01*
X924907Y669056D01*
X925107Y668686D01*
X925298Y668312D01*
X925480Y667932D01*
X925652Y667549D01*
X925815Y667161D01*
X925969Y666770D01*
X926114Y666375D01*
X926248Y665977D01*
X926373Y665575D01*
X926489Y665171D01*
X926594Y664764D01*
X926690Y664355D01*
X926776Y663943D01*
X926852Y663529D01*
X926917Y663114D01*
X926973Y662697D01*
X927019Y662279D01*
X927054Y661860D01*
X927080Y661441D01*
X927095Y661020D01*
X927100Y660600D01*
X927100Y635000D01*
X388000Y660000D02*
X387998Y660039D01*
X387992Y660078D01*
X387983Y660116D01*
X387970Y660153D01*
X387953Y660189D01*
X387933Y660222D01*
X387909Y660254D01*
X387883Y660283D01*
X387854Y660309D01*
X387822Y660333D01*
X387789Y660353D01*
X387753Y660370D01*
X387716Y660383D01*
X387678Y660392D01*
X387639Y660398D01*
X387600Y660400D01*
X388000Y660000D02*
X388000Y601400D01*
X387993Y600786D01*
X387970Y600173D01*
X387933Y599560D01*
X387881Y598949D01*
X387815Y598338D01*
X387733Y597730D01*
X387637Y597124D01*
X387527Y596520D01*
X387402Y595919D01*
X387262Y595321D01*
X387108Y594727D01*
X386939Y594137D01*
X386757Y593551D01*
X386560Y592970D01*
X386349Y592393D01*
X386125Y591822D01*
X385887Y591256D01*
X385635Y590696D01*
X385369Y590143D01*
X385091Y589596D01*
X384799Y589056D01*
X384494Y588523D01*
X384176Y587998D01*
X383846Y587480D01*
X383504Y586971D01*
X383149Y586470D01*
X382782Y585978D01*
X382404Y585495D01*
X382014Y585021D01*
X381612Y584557D01*
X381200Y584102D01*
X380776Y583658D01*
X380342Y583224D01*
X379898Y582800D01*
X379443Y582388D01*
X378979Y581986D01*
X378505Y581596D01*
X378022Y581218D01*
X377530Y580851D01*
X377029Y580496D01*
X376520Y580154D01*
X376002Y579824D01*
X375477Y579506D01*
X374944Y579201D01*
X374404Y578909D01*
X373857Y578631D01*
X373304Y578365D01*
X372744Y578113D01*
X372178Y577875D01*
X371607Y577651D01*
X371030Y577440D01*
X370449Y577243D01*
X369863Y577061D01*
X369273Y576892D01*
X368679Y576738D01*
X368081Y576598D01*
X367480Y576473D01*
X366876Y576363D01*
X366270Y576267D01*
X365662Y576185D01*
X365051Y576119D01*
X364440Y576067D01*
X363827Y576030D01*
X363214Y576007D01*
X362600Y576000D01*
X85300Y576000D01*
X84855Y575995D01*
X84411Y575979D01*
X83967Y575952D01*
X83524Y575914D01*
X83082Y575866D01*
X82641Y575807D01*
X82202Y575737D01*
X81765Y575657D01*
X81330Y575567D01*
X80897Y575465D01*
X80466Y575354D01*
X80039Y575232D01*
X79614Y575099D01*
X79193Y574957D01*
X78775Y574804D01*
X78361Y574642D01*
X77952Y574469D01*
X77546Y574286D01*
X77145Y574094D01*
X76749Y573892D01*
X76358Y573681D01*
X75972Y573460D01*
X75591Y573230D01*
X75217Y572991D01*
X74848Y572743D01*
X74485Y572486D01*
X74128Y572220D01*
X73778Y571946D01*
X73435Y571663D01*
X73099Y571373D01*
X72769Y571074D01*
X72447Y570767D01*
X72133Y570453D01*
X71826Y570131D01*
X71527Y569801D01*
X71237Y569465D01*
X70954Y569122D01*
X70680Y568772D01*
X70414Y568415D01*
X70157Y568052D01*
X69909Y567683D01*
X69670Y567309D01*
X69440Y566928D01*
X69219Y566542D01*
X69008Y566151D01*
X68806Y565755D01*
X68614Y565354D01*
X68431Y564948D01*
X68258Y564539D01*
X68096Y564125D01*
X67943Y563707D01*
X67801Y563286D01*
X67668Y562861D01*
X67546Y562434D01*
X67435Y562003D01*
X67333Y561570D01*
X67243Y561135D01*
X67163Y560698D01*
X67093Y560259D01*
X67034Y559818D01*
X66986Y559376D01*
X66948Y558933D01*
X66921Y558489D01*
X66905Y558045D01*
X66900Y557600D01*
X66900Y513000D01*
X387600Y659500D02*
X387600Y663000D01*
X387604Y663362D01*
X387618Y663725D01*
X387639Y664087D01*
X387670Y664448D01*
X387709Y664808D01*
X387757Y665167D01*
X387814Y665525D01*
X387879Y665882D01*
X387953Y666237D01*
X388036Y666590D01*
X388127Y666941D01*
X388226Y667289D01*
X388334Y667635D01*
X388450Y667979D01*
X388575Y668319D01*
X388707Y668656D01*
X388848Y668990D01*
X388997Y669321D01*
X389154Y669648D01*
X389318Y669971D01*
X389490Y670290D01*
X389670Y670604D01*
X389858Y670915D01*
X390053Y671220D01*
X390255Y671521D01*
X390465Y671817D01*
X390681Y672107D01*
X390905Y672393D01*
X391135Y672673D01*
X391372Y672947D01*
X391616Y673215D01*
X391866Y673478D01*
X392122Y673734D01*
X392385Y673984D01*
X392653Y674228D01*
X392927Y674465D01*
X393207Y674695D01*
X393493Y674919D01*
X393783Y675135D01*
X394079Y675345D01*
X394380Y675547D01*
X394685Y675742D01*
X394996Y675930D01*
X395310Y676110D01*
X395629Y676282D01*
X395952Y676446D01*
X396279Y676603D01*
X396610Y676752D01*
X396944Y676893D01*
X397281Y677025D01*
X397621Y677150D01*
X397965Y677266D01*
X398311Y677374D01*
X398659Y677473D01*
X399010Y677564D01*
X399363Y677647D01*
X399718Y677721D01*
X400075Y677786D01*
X400433Y677843D01*
X400792Y677891D01*
X401152Y677930D01*
X401513Y677961D01*
X401875Y677982D01*
X402238Y677996D01*
X402600Y678000D01*
X1283300Y50400D02*
X1289600Y50400D01*
X1290214Y50407D01*
X1290827Y50430D01*
X1291440Y50467D01*
X1292051Y50519D01*
X1292662Y50585D01*
X1293270Y50667D01*
X1293876Y50763D01*
X1294480Y50873D01*
X1295081Y50998D01*
X1295679Y51138D01*
X1296273Y51292D01*
X1296863Y51461D01*
X1297449Y51643D01*
X1298030Y51840D01*
X1298607Y52051D01*
X1299178Y52275D01*
X1299744Y52513D01*
X1300304Y52765D01*
X1300857Y53031D01*
X1301404Y53309D01*
X1301944Y53601D01*
X1302477Y53906D01*
X1303002Y54224D01*
X1303520Y54554D01*
X1304029Y54896D01*
X1304530Y55251D01*
X1305022Y55618D01*
X1305505Y55996D01*
X1305979Y56386D01*
X1306443Y56788D01*
X1306898Y57200D01*
X1307342Y57624D01*
X1307776Y58058D01*
X1308200Y58502D01*
X1308612Y58957D01*
X1309014Y59421D01*
X1309404Y59895D01*
X1309782Y60378D01*
X1310149Y60870D01*
X1310504Y61371D01*
X1310846Y61880D01*
X1311176Y62398D01*
X1311494Y62923D01*
X1311799Y63456D01*
X1312091Y63996D01*
X1312369Y64543D01*
X1312635Y65096D01*
X1312887Y65656D01*
X1313125Y66222D01*
X1313349Y66793D01*
X1313560Y67370D01*
X1313757Y67951D01*
X1313939Y68537D01*
X1314108Y69127D01*
X1314262Y69721D01*
X1314402Y70319D01*
X1314527Y70920D01*
X1314637Y71524D01*
X1314733Y72130D01*
X1314815Y72738D01*
X1314881Y73349D01*
X1314933Y73960D01*
X1314970Y74573D01*
X1314993Y75186D01*
X1315000Y75800D01*
X1315000Y152400D01*
X1314993Y153014D01*
X1314970Y153627D01*
X1314933Y154240D01*
X1314881Y154851D01*
X1314815Y155462D01*
X1314733Y156070D01*
X1314637Y156676D01*
X1314527Y157280D01*
X1314402Y157881D01*
X1314262Y158479D01*
X1314108Y159073D01*
X1313939Y159663D01*
X1313757Y160249D01*
X1313560Y160830D01*
X1313349Y161407D01*
X1313125Y161978D01*
X1312887Y162544D01*
X1312635Y163104D01*
X1312369Y163657D01*
X1312091Y164204D01*
X1311799Y164744D01*
X1311494Y165277D01*
X1311176Y165802D01*
X1310846Y166320D01*
X1310504Y166829D01*
X1310149Y167330D01*
X1309782Y167822D01*
X1309404Y168305D01*
X1309014Y168779D01*
X1308612Y169243D01*
X1308200Y169698D01*
X1307776Y170142D01*
X1307342Y170576D01*
X1306898Y171000D01*
X1306443Y171412D01*
X1305979Y171814D01*
X1305505Y172204D01*
X1305022Y172582D01*
X1304530Y172949D01*
X1304029Y173304D01*
X1303520Y173646D01*
X1303002Y173976D01*
X1302477Y174294D01*
X1301944Y174599D01*
X1301404Y174891D01*
X1300857Y175169D01*
X1300304Y175435D01*
X1299744Y175687D01*
X1299178Y175925D01*
X1298607Y176149D01*
X1298030Y176360D01*
X1297449Y176557D01*
X1296863Y176739D01*
X1296273Y176908D01*
X1295679Y177062D01*
X1295081Y177202D01*
X1294480Y177327D01*
X1293876Y177437D01*
X1293270Y177533D01*
X1292662Y177615D01*
X1292051Y177681D01*
X1291440Y177733D01*
X1290827Y177770D01*
X1290214Y177793D01*
X1289600Y177800D01*
X1282700Y177800D01*
X1315000Y152400D02*
X1315000Y266700D01*
X1314993Y267314D01*
X1314970Y267927D01*
X1314933Y268540D01*
X1314881Y269151D01*
X1314815Y269762D01*
X1314733Y270370D01*
X1314637Y270976D01*
X1314527Y271580D01*
X1314402Y272181D01*
X1314262Y272779D01*
X1314108Y273373D01*
X1313939Y273963D01*
X1313757Y274549D01*
X1313560Y275130D01*
X1313349Y275707D01*
X1313125Y276278D01*
X1312887Y276844D01*
X1312635Y277404D01*
X1312369Y277957D01*
X1312091Y278504D01*
X1311799Y279044D01*
X1311494Y279577D01*
X1311176Y280102D01*
X1310846Y280620D01*
X1310504Y281129D01*
X1310149Y281630D01*
X1309782Y282122D01*
X1309404Y282605D01*
X1309014Y283079D01*
X1308612Y283543D01*
X1308200Y283998D01*
X1307776Y284442D01*
X1307342Y284876D01*
X1306898Y285300D01*
X1306443Y285712D01*
X1305979Y286114D01*
X1305505Y286504D01*
X1305022Y286882D01*
X1304530Y287249D01*
X1304029Y287604D01*
X1303520Y287946D01*
X1303002Y288276D01*
X1302477Y288594D01*
X1301944Y288899D01*
X1301404Y289191D01*
X1300857Y289469D01*
X1300304Y289735D01*
X1299744Y289987D01*
X1299178Y290225D01*
X1298607Y290449D01*
X1298030Y290660D01*
X1297449Y290857D01*
X1296863Y291039D01*
X1296273Y291208D01*
X1295679Y291362D01*
X1295081Y291502D01*
X1294480Y291627D01*
X1293876Y291737D01*
X1293270Y291833D01*
X1292662Y291915D01*
X1292051Y291981D01*
X1291440Y292033D01*
X1290827Y292070D01*
X1290214Y292093D01*
X1289600Y292100D01*
X1282700Y292100D01*
X611400Y678000D02*
X610786Y677993D01*
X610173Y677970D01*
X609560Y677933D01*
X608949Y677881D01*
X608338Y677815D01*
X607730Y677733D01*
X607124Y677637D01*
X606520Y677527D01*
X605919Y677402D01*
X605321Y677262D01*
X604727Y677108D01*
X604137Y676939D01*
X603551Y676757D01*
X602970Y676560D01*
X602393Y676349D01*
X601822Y676125D01*
X601256Y675887D01*
X600696Y675635D01*
X600143Y675369D01*
X599596Y675091D01*
X599056Y674799D01*
X598523Y674494D01*
X597998Y674176D01*
X597480Y673846D01*
X596971Y673504D01*
X596470Y673149D01*
X595978Y672782D01*
X595495Y672404D01*
X595021Y672014D01*
X594557Y671612D01*
X594102Y671200D01*
X593658Y670776D01*
X593224Y670342D01*
X592800Y669898D01*
X592388Y669443D01*
X591986Y668979D01*
X591596Y668505D01*
X591218Y668022D01*
X590851Y667530D01*
X590496Y667029D01*
X590154Y666520D01*
X589824Y666002D01*
X589506Y665477D01*
X589201Y664944D01*
X588909Y664404D01*
X588631Y663857D01*
X588365Y663304D01*
X588113Y662744D01*
X587875Y662178D01*
X587651Y661607D01*
X587440Y661030D01*
X587243Y660449D01*
X587061Y659863D01*
X586892Y659273D01*
X586738Y658679D01*
X586598Y658081D01*
X586473Y657480D01*
X586363Y656876D01*
X586267Y656270D01*
X586185Y655662D01*
X586119Y655051D01*
X586067Y654440D01*
X586030Y653827D01*
X586007Y653214D01*
X586000Y652600D01*
X586000Y607000D01*
X586000Y558000D01*
D23*
X903000Y317000D03*
D22*
X303000Y317000D01*
D23*
X303000Y317000D03*
X1001000Y108000D03*
D22*
X1001000Y487600D01*
X1000993Y488214D01*
X1000970Y488827D01*
X1000933Y489440D01*
X1000881Y490051D01*
X1000815Y490662D01*
X1000733Y491270D01*
X1000637Y491876D01*
X1000527Y492480D01*
X1000402Y493081D01*
X1000262Y493679D01*
X1000108Y494273D01*
X999939Y494863D01*
X999757Y495449D01*
X999560Y496030D01*
X999349Y496607D01*
X999125Y497178D01*
X998887Y497744D01*
X998635Y498304D01*
X998369Y498857D01*
X998091Y499404D01*
X997799Y499944D01*
X997494Y500477D01*
X997176Y501002D01*
X996846Y501520D01*
X996504Y502029D01*
X996149Y502530D01*
X995782Y503022D01*
X995404Y503505D01*
X995014Y503979D01*
X994612Y504443D01*
X994200Y504898D01*
X993776Y505342D01*
X993342Y505776D01*
X992898Y506200D01*
X992443Y506612D01*
X991979Y507014D01*
X991505Y507404D01*
X991022Y507782D01*
X990530Y508149D01*
X990029Y508504D01*
X989520Y508846D01*
X989002Y509176D01*
X988477Y509494D01*
X987944Y509799D01*
X987404Y510091D01*
X986857Y510369D01*
X986304Y510635D01*
X985744Y510887D01*
X985178Y511125D01*
X984607Y511349D01*
X984030Y511560D01*
X983449Y511757D01*
X982863Y511939D01*
X982273Y512108D01*
X981679Y512262D01*
X981081Y512402D01*
X980480Y512527D01*
X979876Y512637D01*
X979270Y512733D01*
X978662Y512815D01*
X978051Y512881D01*
X977440Y512933D01*
X976827Y512970D01*
X976214Y512993D01*
X975600Y513000D01*
X256000Y513000D01*
D23*
X256000Y513000D03*
X1105000Y388000D03*
D22*
X1105000Y679600D01*
X1104993Y680214D01*
X1104970Y680827D01*
X1104933Y681440D01*
X1104881Y682051D01*
X1104815Y682662D01*
X1104733Y683270D01*
X1104637Y683876D01*
X1104527Y684480D01*
X1104402Y685081D01*
X1104262Y685679D01*
X1104108Y686273D01*
X1103939Y686863D01*
X1103757Y687449D01*
X1103560Y688030D01*
X1103349Y688607D01*
X1103125Y689178D01*
X1102887Y689744D01*
X1102635Y690304D01*
X1102369Y690857D01*
X1102091Y691404D01*
X1101799Y691944D01*
X1101494Y692477D01*
X1101176Y693002D01*
X1100846Y693520D01*
X1100504Y694029D01*
X1100149Y694530D01*
X1099782Y695022D01*
X1099404Y695505D01*
X1099014Y695979D01*
X1098612Y696443D01*
X1098200Y696898D01*
X1097776Y697342D01*
X1097342Y697776D01*
X1096898Y698200D01*
X1096443Y698612D01*
X1095979Y699014D01*
X1095505Y699404D01*
X1095022Y699782D01*
X1094530Y700149D01*
X1094029Y700504D01*
X1093520Y700846D01*
X1093002Y701176D01*
X1092477Y701494D01*
X1091944Y701799D01*
X1091404Y702091D01*
X1090857Y702369D01*
X1090304Y702635D01*
X1089744Y702887D01*
X1089178Y703125D01*
X1088607Y703349D01*
X1088030Y703560D01*
X1087449Y703757D01*
X1086863Y703939D01*
X1086273Y704108D01*
X1085679Y704262D01*
X1085081Y704402D01*
X1084480Y704527D01*
X1083876Y704637D01*
X1083270Y704733D01*
X1082662Y704815D01*
X1082051Y704881D01*
X1081440Y704933D01*
X1080827Y704970D01*
X1080214Y704993D01*
X1079600Y705000D01*
X359400Y705000D01*
X358786Y704993D01*
X358173Y704970D01*
X357560Y704933D01*
X356949Y704881D01*
X356338Y704815D01*
X355730Y704733D01*
X355124Y704637D01*
X354520Y704527D01*
X353919Y704402D01*
X353321Y704262D01*
X352727Y704108D01*
X352137Y703939D01*
X351551Y703757D01*
X350970Y703560D01*
X350393Y703349D01*
X349822Y703125D01*
X349256Y702887D01*
X348696Y702635D01*
X348143Y702369D01*
X347596Y702091D01*
X347056Y701799D01*
X346523Y701494D01*
X345998Y701176D01*
X345480Y700846D01*
X344971Y700504D01*
X344470Y700149D01*
X343978Y699782D01*
X343495Y699404D01*
X343021Y699014D01*
X342557Y698612D01*
X342102Y698200D01*
X341658Y697776D01*
X341224Y697342D01*
X340800Y696898D01*
X340388Y696443D01*
X339986Y695979D01*
X339596Y695505D01*
X339218Y695022D01*
X338851Y694530D01*
X338496Y694029D01*
X338154Y693520D01*
X337824Y693002D01*
X337506Y692477D01*
X337201Y691944D01*
X336909Y691404D01*
X336631Y690857D01*
X336365Y690304D01*
X336113Y689744D01*
X335875Y689178D01*
X335651Y688607D01*
X335440Y688030D01*
X335243Y687449D01*
X335061Y686863D01*
X334892Y686273D01*
X334738Y685679D01*
X334598Y685081D01*
X334473Y684480D01*
X334363Y683876D01*
X334267Y683270D01*
X334185Y682662D01*
X334119Y682051D01*
X334067Y681440D01*
X334030Y680827D01*
X334007Y680214D01*
X334000Y679600D01*
X334000Y627000D01*
X333995Y626589D01*
X333980Y626179D01*
X333955Y625769D01*
X333921Y625359D01*
X333876Y624951D01*
X333822Y624544D01*
X333757Y624138D01*
X333683Y623734D01*
X333599Y623332D01*
X333506Y622932D01*
X333403Y622534D01*
X333290Y622139D01*
X333168Y621747D01*
X333036Y621358D01*
X332895Y620972D01*
X332745Y620589D01*
X332585Y620211D01*
X332417Y619836D01*
X332239Y619466D01*
X332053Y619100D01*
X331857Y618738D01*
X331653Y618382D01*
X331441Y618030D01*
X331220Y617684D01*
X330991Y617343D01*
X330753Y617008D01*
X330508Y616678D01*
X330254Y616355D01*
X329993Y616038D01*
X329725Y615727D01*
X329449Y615423D01*
X329165Y615125D01*
X328875Y614835D01*
X328577Y614551D01*
X328273Y614275D01*
X327962Y614007D01*
X327645Y613746D01*
X327322Y613492D01*
X326992Y613247D01*
X326657Y613009D01*
X326316Y612780D01*
X325970Y612559D01*
X325618Y612347D01*
X325262Y612143D01*
X324900Y611947D01*
X324534Y611761D01*
X324164Y611583D01*
X323789Y611415D01*
X323411Y611255D01*
X323028Y611105D01*
X322642Y610964D01*
X322253Y610832D01*
X321861Y610710D01*
X321466Y610597D01*
X321068Y610494D01*
X320668Y610401D01*
X320266Y610317D01*
X319862Y610243D01*
X319456Y610178D01*
X319049Y610124D01*
X318641Y610079D01*
X318231Y610045D01*
X317821Y610020D01*
X317411Y610005D01*
X317000Y610000D01*
X203200Y610000D01*
D23*
X1156000Y387000D03*
D22*
X1156000Y700600D01*
X1155993Y701214D01*
X1155970Y701827D01*
X1155933Y702440D01*
X1155881Y703051D01*
X1155815Y703662D01*
X1155733Y704270D01*
X1155637Y704876D01*
X1155527Y705480D01*
X1155402Y706081D01*
X1155262Y706679D01*
X1155108Y707273D01*
X1154939Y707863D01*
X1154757Y708449D01*
X1154560Y709030D01*
X1154349Y709607D01*
X1154125Y710178D01*
X1153887Y710744D01*
X1153635Y711304D01*
X1153369Y711857D01*
X1153091Y712404D01*
X1152799Y712944D01*
X1152494Y713477D01*
X1152176Y714002D01*
X1151846Y714520D01*
X1151504Y715029D01*
X1151149Y715530D01*
X1150782Y716022D01*
X1150404Y716505D01*
X1150014Y716979D01*
X1149612Y717443D01*
X1149200Y717898D01*
X1148776Y718342D01*
X1148342Y718776D01*
X1147898Y719200D01*
X1147443Y719612D01*
X1146979Y720014D01*
X1146505Y720404D01*
X1146022Y720782D01*
X1145530Y721149D01*
X1145029Y721504D01*
X1144520Y721846D01*
X1144002Y722176D01*
X1143477Y722494D01*
X1142944Y722799D01*
X1142404Y723091D01*
X1141857Y723369D01*
X1141304Y723635D01*
X1140744Y723887D01*
X1140178Y724125D01*
X1139607Y724349D01*
X1139030Y724560D01*
X1138449Y724757D01*
X1137863Y724939D01*
X1137273Y725108D01*
X1136679Y725262D01*
X1136081Y725402D01*
X1135480Y725527D01*
X1134876Y725637D01*
X1134270Y725733D01*
X1133662Y725815D01*
X1133051Y725881D01*
X1132440Y725933D01*
X1131827Y725970D01*
X1131214Y725993D01*
X1130600Y726000D01*
X335400Y726000D01*
X334786Y725993D01*
X334173Y725970D01*
X333560Y725933D01*
X332949Y725881D01*
X332338Y725815D01*
X331730Y725733D01*
X331124Y725637D01*
X330520Y725527D01*
X329919Y725402D01*
X329321Y725262D01*
X328727Y725108D01*
X328137Y724939D01*
X327551Y724757D01*
X326970Y724560D01*
X326393Y724349D01*
X325822Y724125D01*
X325256Y723887D01*
X324696Y723635D01*
X324143Y723369D01*
X323596Y723091D01*
X323056Y722799D01*
X322523Y722494D01*
X321998Y722176D01*
X321480Y721846D01*
X320971Y721504D01*
X320470Y721149D01*
X319978Y720782D01*
X319495Y720404D01*
X319021Y720014D01*
X318557Y719612D01*
X318102Y719200D01*
X317658Y718776D01*
X317224Y718342D01*
X316800Y717898D01*
X316388Y717443D01*
X315986Y716979D01*
X315596Y716505D01*
X315218Y716022D01*
X314851Y715530D01*
X314496Y715029D01*
X314154Y714520D01*
X313824Y714002D01*
X313506Y713477D01*
X313201Y712944D01*
X312909Y712404D01*
X312631Y711857D01*
X312365Y711304D01*
X312113Y710744D01*
X311875Y710178D01*
X311651Y709607D01*
X311440Y709030D01*
X311243Y708449D01*
X311061Y707863D01*
X310892Y707273D01*
X310738Y706679D01*
X310598Y706081D01*
X310473Y705480D01*
X310363Y704876D01*
X310267Y704270D01*
X310185Y703662D01*
X310119Y703051D01*
X310067Y702440D01*
X310030Y701827D01*
X310007Y701214D01*
X310000Y700600D01*
X310000Y678000D01*
X309995Y677553D01*
X309978Y677106D01*
X309951Y676660D01*
X309914Y676214D01*
X309865Y675770D01*
X309806Y675327D01*
X309736Y674885D01*
X309655Y674446D01*
X309564Y674008D01*
X309462Y673573D01*
X309350Y673140D01*
X309228Y672710D01*
X309095Y672283D01*
X308951Y671860D01*
X308798Y671440D01*
X308634Y671024D01*
X308461Y670612D01*
X308277Y670204D01*
X308084Y669801D01*
X307881Y669403D01*
X307668Y669009D01*
X307446Y668621D01*
X307215Y668239D01*
X306975Y667862D01*
X306725Y667491D01*
X306467Y667126D01*
X306200Y666767D01*
X305924Y666416D01*
X305640Y666070D01*
X305347Y665732D01*
X305047Y665401D01*
X304739Y665078D01*
X304422Y664761D01*
X304099Y664453D01*
X303768Y664153D01*
X303430Y663860D01*
X303084Y663576D01*
X302733Y663300D01*
X302374Y663033D01*
X302009Y662775D01*
X301638Y662525D01*
X301261Y662285D01*
X300879Y662054D01*
X300491Y661832D01*
X300097Y661619D01*
X299699Y661416D01*
X299296Y661223D01*
X298888Y661039D01*
X298476Y660866D01*
X298060Y660702D01*
X297640Y660549D01*
X297217Y660405D01*
X296790Y660272D01*
X296360Y660150D01*
X295927Y660038D01*
X295492Y659936D01*
X295054Y659845D01*
X294615Y659764D01*
X294173Y659694D01*
X293730Y659635D01*
X293286Y659586D01*
X292840Y659549D01*
X292394Y659522D01*
X291947Y659505D01*
X291500Y659500D01*
X228600Y659500D01*
D23*
X1058000Y663000D03*
D22*
X1058000Y584200D01*
X1057993Y583586D01*
X1057970Y582973D01*
X1057933Y582360D01*
X1057881Y581749D01*
X1057815Y581138D01*
X1057733Y580530D01*
X1057637Y579924D01*
X1057527Y579320D01*
X1057402Y578719D01*
X1057262Y578121D01*
X1057108Y577527D01*
X1056939Y576937D01*
X1056757Y576351D01*
X1056560Y575770D01*
X1056349Y575193D01*
X1056125Y574622D01*
X1055887Y574056D01*
X1055635Y573496D01*
X1055369Y572943D01*
X1055091Y572396D01*
X1054799Y571856D01*
X1054494Y571323D01*
X1054176Y570798D01*
X1053846Y570280D01*
X1053504Y569771D01*
X1053149Y569270D01*
X1052782Y568778D01*
X1052404Y568295D01*
X1052014Y567821D01*
X1051612Y567357D01*
X1051200Y566902D01*
X1050776Y566458D01*
X1050342Y566024D01*
X1049898Y565600D01*
X1049443Y565188D01*
X1048979Y564786D01*
X1048505Y564396D01*
X1048022Y564018D01*
X1047530Y563651D01*
X1047029Y563296D01*
X1046520Y562954D01*
X1046002Y562624D01*
X1045477Y562306D01*
X1044944Y562001D01*
X1044404Y561709D01*
X1043857Y561431D01*
X1043304Y561165D01*
X1042744Y560913D01*
X1042178Y560675D01*
X1041607Y560451D01*
X1041030Y560240D01*
X1040449Y560043D01*
X1039863Y559861D01*
X1039273Y559692D01*
X1038679Y559538D01*
X1038081Y559398D01*
X1037480Y559273D01*
X1036876Y559163D01*
X1036270Y559067D01*
X1035662Y558985D01*
X1035051Y558919D01*
X1034440Y558867D01*
X1033827Y558830D01*
X1033214Y558807D01*
X1032600Y558800D01*
X927100Y558800D01*
M02*
