G04 EAGLE Gerber RS-274X export*
G75*
%MOMM*%
%FSLAX34Y34*%
%LPD*%
%INSoldermask Bottom*%
%IPPOS*%
%AMOC8*
5,1,8,0,0,1.08239X$1,22.5*%
G01*
G04 Define Apertures*
%ADD10C,3.803200*%
%ADD11C,3.003200*%
%ADD12R,3.505200X3.505200*%
%ADD13C,3.505200*%
%ADD14R,4.013200X4.013200*%
%ADD15C,4.013200*%
%ADD16C,2.003200*%
%ADD17R,2.743200X2.743200*%
%ADD18C,2.743200*%
%ADD19C,2.203200*%
%ADD20R,2.103200X2.103200*%
%ADD21C,2.103200*%
%ADD22R,2.203200X2.203200*%
%ADD23C,3.203200*%
D10*
X62000Y706000D03*
X1292000Y776000D03*
X650000Y227000D03*
D11*
X355600Y64800D02*
X355600Y36800D01*
X316000Y36800D02*
X316000Y64800D01*
D12*
X558800Y355600D03*
D13*
X609600Y355600D03*
D12*
X673100Y76200D03*
D13*
X723900Y76200D03*
D14*
X489559Y77332D03*
D15*
X540359Y77332D03*
X591159Y77332D03*
D16*
X117700Y513000D03*
X66900Y513000D03*
X1283300Y101200D03*
X1283300Y50400D03*
X1282700Y228600D03*
X1282700Y177800D03*
X1282700Y342900D03*
X1282700Y292100D03*
X787400Y228600D03*
X787400Y177800D03*
X787400Y101600D03*
X787400Y50800D03*
X609600Y279400D03*
X558800Y279400D03*
X508000Y177800D03*
X457200Y177800D03*
D14*
X850900Y76200D03*
D15*
X901700Y76200D03*
X952500Y76200D03*
D14*
X850900Y203200D03*
D15*
X901700Y203200D03*
X952500Y203200D03*
D14*
X1054100Y203200D03*
D15*
X1104900Y203200D03*
X1155700Y203200D03*
X1206500Y203200D03*
D14*
X1054100Y317500D03*
D15*
X1104900Y317500D03*
X1155700Y317500D03*
X1206500Y317500D03*
D17*
X109700Y47900D03*
D18*
X169700Y47900D03*
X49700Y383900D03*
X229700Y383900D03*
D19*
X228600Y659500D03*
X387600Y659500D03*
X203200Y610000D03*
X362200Y610000D03*
D14*
X1054100Y76200D03*
D15*
X1104900Y76200D03*
X1155700Y76200D03*
X1206500Y76200D03*
D19*
X101600Y457200D03*
X127000Y457200D03*
X152400Y457200D03*
X177800Y457200D03*
X203200Y457200D03*
X228600Y457200D03*
X254000Y457200D03*
X279400Y457200D03*
X304800Y457200D03*
X330200Y457200D03*
X355600Y457200D03*
X381000Y457200D03*
X406400Y457200D03*
X431800Y457200D03*
X457200Y457200D03*
X482600Y457200D03*
X101600Y762000D03*
X127000Y762000D03*
X152400Y762000D03*
X177800Y762000D03*
X203200Y762000D03*
X228600Y762000D03*
X254000Y762000D03*
X279400Y762000D03*
X304800Y762000D03*
X330200Y762000D03*
X355600Y762000D03*
X381000Y762000D03*
X406400Y762000D03*
X431800Y762000D03*
X457200Y762000D03*
X482600Y762000D03*
D20*
X723900Y558800D03*
D21*
X749300Y558800D03*
X774700Y558800D03*
X800100Y558800D03*
X825500Y558800D03*
X850900Y558800D03*
X876300Y558800D03*
X901700Y558800D03*
X927100Y558800D03*
X927100Y635000D03*
X901700Y635000D03*
X876300Y635000D03*
X850900Y635000D03*
X825500Y635000D03*
X800100Y635000D03*
X774700Y635000D03*
X749300Y635000D03*
X723900Y635000D03*
D22*
X1191300Y670900D03*
D19*
X1191300Y747100D03*
X1216700Y670900D03*
X1216700Y747100D03*
X427000Y558000D03*
X586000Y558000D03*
X427000Y607000D03*
X586000Y607000D03*
D23*
X903000Y317000D03*
X303000Y317000D03*
X1001000Y108000D03*
X256000Y513000D03*
X1105000Y388000D03*
X1156000Y387000D03*
X1058000Y663000D03*
M02*
