G04 EAGLE Gerber RS-274X export*
G75*
%MOMM*%
%FSLAX34Y34*%
%LPD*%
%INBottom Copper*%
%IPPOS*%
%AMOC8*
5,1,8,0,0,1.08239X$1,22.5*%
G01*
G04 Define Apertures*
%ADD10C,2.800000*%
%ADD11R,3.302000X3.302000*%
%ADD12C,3.302000*%
%ADD13R,3.810000X3.810000*%
%ADD14C,3.810000*%
%ADD15C,1.800000*%
%ADD16R,2.540000X2.540000*%
%ADD17C,2.540000*%
%ADD18C,2.000000*%
%ADD19R,2.000000X2.000000*%
%ADD20C,1.930400*%
%ADD21C,1.016000*%
%ADD22C,0.508000*%
%ADD23C,1.500000*%
G36*
X82751Y12901D02*
X81760Y12700D01*
X15240Y12700D01*
X14324Y12871D01*
X13473Y13416D01*
X12901Y14249D01*
X12700Y15240D01*
X12700Y745994D01*
X12856Y746872D01*
X13388Y747732D01*
X14212Y748317D01*
X15200Y748534D01*
X16193Y748349D01*
X17036Y747790D01*
X20992Y743834D01*
X27308Y740188D01*
X34353Y738300D01*
X41647Y738300D01*
X48692Y740188D01*
X55008Y743834D01*
X60166Y748992D01*
X63812Y755308D01*
X65700Y762353D01*
X65700Y769647D01*
X63812Y776692D01*
X60166Y783008D01*
X55008Y788166D01*
X48692Y791812D01*
X41647Y793700D01*
X34353Y793700D01*
X27308Y791812D01*
X20992Y788166D01*
X17036Y784210D01*
X16305Y783700D01*
X15321Y783467D01*
X14324Y783637D01*
X13473Y784181D01*
X12901Y785015D01*
X12700Y786006D01*
X12700Y806960D01*
X12871Y807876D01*
X13416Y808727D01*
X14249Y809299D01*
X15240Y809500D01*
X1356160Y809500D01*
X1357076Y809329D01*
X1357927Y808784D01*
X1358499Y807951D01*
X1358700Y806960D01*
X1358700Y15240D01*
X1358529Y14324D01*
X1357984Y13473D01*
X1357151Y12901D01*
X1356160Y12700D01*
X375392Y12700D01*
X374514Y12856D01*
X373654Y13388D01*
X373069Y14212D01*
X372852Y15200D01*
X373037Y16193D01*
X373596Y17036D01*
X376965Y20406D01*
X380480Y26494D01*
X382300Y33285D01*
X382300Y68315D01*
X380480Y75106D01*
X376965Y81194D01*
X376544Y81616D01*
X376001Y82421D01*
X375800Y83412D01*
X375800Y110418D01*
X372725Y117842D01*
X335442Y155125D01*
X328018Y158200D01*
X154982Y158200D01*
X147558Y155125D01*
X92575Y100142D01*
X89500Y92718D01*
X89500Y51113D01*
X89314Y50159D01*
X88756Y49317D01*
X86233Y46794D01*
X84300Y42126D01*
X84300Y15240D01*
X84129Y14324D01*
X83584Y13473D01*
X82751Y12901D01*
G37*
%LPC*%
G36*
X1310353Y736300D02*
X1317647Y736300D01*
X1324692Y738188D01*
X1331008Y741834D01*
X1336166Y746992D01*
X1339812Y753308D01*
X1341700Y760353D01*
X1341700Y767647D01*
X1339812Y774692D01*
X1336166Y781008D01*
X1331008Y786166D01*
X1324692Y789812D01*
X1317647Y791700D01*
X1310353Y791700D01*
X1303308Y789812D01*
X1296992Y786166D01*
X1291834Y781008D01*
X1288188Y774692D01*
X1286300Y767647D01*
X1286300Y760353D01*
X1288188Y753308D01*
X1291834Y746992D01*
X1296992Y741834D01*
X1303308Y738188D01*
X1310353Y736300D01*
G37*
G36*
X783084Y29100D02*
X791716Y29100D01*
X799852Y32470D01*
X800370Y32819D01*
X801361Y33020D01*
X828471Y33020D01*
X835005Y35727D01*
X843551Y44272D01*
X844356Y44815D01*
X845347Y45016D01*
X872476Y45016D01*
X877144Y46950D01*
X880414Y50220D01*
X881514Y50866D01*
X882522Y50945D01*
X883480Y50624D01*
X889445Y47180D01*
X897520Y45016D01*
X905880Y45016D01*
X913955Y47180D01*
X921195Y51360D01*
X927106Y57271D01*
X930706Y63506D01*
X931053Y63974D01*
X931878Y64558D01*
X932865Y64775D01*
X933859Y64590D01*
X934702Y64032D01*
X940270Y58463D01*
X948205Y55176D01*
X950000Y55176D01*
X950000Y98356D01*
X948205Y98356D01*
X940270Y95069D01*
X934702Y89501D01*
X934245Y89139D01*
X933297Y88787D01*
X932287Y88833D01*
X931375Y89269D01*
X930706Y90027D01*
X927106Y96261D01*
X921195Y102172D01*
X918210Y103896D01*
X917713Y104271D01*
X917141Y105105D01*
X916940Y106096D01*
X916940Y117785D01*
X917126Y118739D01*
X917684Y119581D01*
X922244Y124142D01*
X925700Y132485D01*
X925700Y141515D01*
X922244Y149859D01*
X915859Y156244D01*
X907515Y159700D01*
X898485Y159700D01*
X890142Y156244D01*
X883756Y149859D01*
X880300Y141515D01*
X880300Y132485D01*
X883756Y124142D01*
X885716Y122181D01*
X886259Y121376D01*
X886460Y120385D01*
X886460Y106096D01*
X886384Y105477D01*
X885947Y104565D01*
X885190Y103896D01*
X883480Y102909D01*
X882251Y102569D01*
X881257Y102754D01*
X880414Y103312D01*
X877144Y106583D01*
X872476Y108516D01*
X871220Y108516D01*
X870304Y108687D01*
X869453Y109232D01*
X868881Y110065D01*
X868680Y111056D01*
X868680Y168910D01*
X868851Y169826D01*
X869396Y170677D01*
X870229Y171249D01*
X871220Y171450D01*
X872476Y171450D01*
X877144Y173383D01*
X880414Y176654D01*
X881514Y177300D01*
X882522Y177379D01*
X883480Y177057D01*
X889445Y173614D01*
X897520Y171450D01*
X905880Y171450D01*
X913955Y173614D01*
X921195Y177794D01*
X927106Y183705D01*
X930706Y189940D01*
X931053Y190407D01*
X931878Y190992D01*
X932865Y191209D01*
X933859Y191024D01*
X934702Y190466D01*
X940270Y184897D01*
X948205Y181610D01*
X950000Y181610D01*
X950000Y224790D01*
X948205Y224790D01*
X940270Y221503D01*
X934702Y215934D01*
X934245Y215572D01*
X933297Y215221D01*
X932287Y215267D01*
X931375Y215703D01*
X930706Y216461D01*
X927106Y222695D01*
X921195Y228606D01*
X918210Y230330D01*
X917713Y230705D01*
X917141Y231539D01*
X916940Y232529D01*
X916940Y271785D01*
X917126Y272739D01*
X917684Y273581D01*
X920244Y276142D01*
X923700Y284485D01*
X923700Y293180D01*
X923871Y294096D01*
X924416Y294947D01*
X925249Y295519D01*
X926240Y295720D01*
X942083Y295720D01*
X943036Y295534D01*
X943879Y294976D01*
X1012576Y226279D01*
X1013119Y225474D01*
X1013320Y224483D01*
X1013320Y111056D01*
X1013149Y110141D01*
X1012604Y109289D01*
X1011771Y108717D01*
X1010780Y108516D01*
X1009524Y108516D01*
X1004856Y106583D01*
X1001283Y103010D01*
X999350Y98342D01*
X999350Y55190D01*
X1001283Y50522D01*
X1004856Y46950D01*
X1009524Y45016D01*
X1052676Y45016D01*
X1057344Y46950D01*
X1060614Y50220D01*
X1061714Y50866D01*
X1062722Y50945D01*
X1063680Y50624D01*
X1069645Y47180D01*
X1077720Y45016D01*
X1086080Y45016D01*
X1094155Y47180D01*
X1101395Y51360D01*
X1105504Y55469D01*
X1106272Y55995D01*
X1107260Y56212D01*
X1108253Y56027D01*
X1109096Y55469D01*
X1113205Y51360D01*
X1120445Y47180D01*
X1128520Y45016D01*
X1136880Y45016D01*
X1144955Y47180D01*
X1152195Y51360D01*
X1158106Y57271D01*
X1161706Y63506D01*
X1162053Y63974D01*
X1162878Y64558D01*
X1163865Y64775D01*
X1164859Y64590D01*
X1165702Y64032D01*
X1171270Y58463D01*
X1179205Y55176D01*
X1181000Y55176D01*
X1181000Y98356D01*
X1179205Y98356D01*
X1171270Y95069D01*
X1165702Y89501D01*
X1165245Y89139D01*
X1164297Y88787D01*
X1163287Y88833D01*
X1162375Y89269D01*
X1161706Y90027D01*
X1158106Y96261D01*
X1152195Y102172D01*
X1149210Y103896D01*
X1148713Y104271D01*
X1148141Y105105D01*
X1147940Y106096D01*
X1147940Y120785D01*
X1148126Y121739D01*
X1148684Y122581D01*
X1150244Y124142D01*
X1153700Y132485D01*
X1153700Y141515D01*
X1150244Y149859D01*
X1143859Y156244D01*
X1135515Y159700D01*
X1126485Y159700D01*
X1118142Y156244D01*
X1111756Y149859D01*
X1108300Y141515D01*
X1108300Y132485D01*
X1111756Y124142D01*
X1116716Y119181D01*
X1117259Y118376D01*
X1117460Y117385D01*
X1117460Y106096D01*
X1117384Y105477D01*
X1116947Y104565D01*
X1116190Y103896D01*
X1113205Y102172D01*
X1109096Y98063D01*
X1108328Y97537D01*
X1107341Y97320D01*
X1106347Y97505D01*
X1105504Y98063D01*
X1101395Y102172D01*
X1098410Y103896D01*
X1097913Y104271D01*
X1097341Y105105D01*
X1097140Y106096D01*
X1097140Y144985D01*
X1097326Y145939D01*
X1097884Y146781D01*
X1100244Y149142D01*
X1103700Y157485D01*
X1103700Y166515D01*
X1100244Y174859D01*
X1093858Y181244D01*
X1092326Y181879D01*
X1091546Y182387D01*
X1090968Y183216D01*
X1090759Y184205D01*
X1090952Y185197D01*
X1093100Y190384D01*
X1093100Y199016D01*
X1089796Y206992D01*
X1083692Y213096D01*
X1082006Y213795D01*
X1081240Y214289D01*
X1080655Y215114D01*
X1080438Y216101D01*
X1080624Y217095D01*
X1081182Y217937D01*
X1106321Y243076D01*
X1107126Y243619D01*
X1108117Y243820D01*
X1265625Y243820D01*
X1266579Y243634D01*
X1267421Y243076D01*
X1268142Y242356D01*
X1276485Y238900D01*
X1285515Y238900D01*
X1287248Y239618D01*
X1288139Y239810D01*
X1289136Y239640D01*
X1289987Y239095D01*
X1290559Y238262D01*
X1290760Y237271D01*
X1290760Y231365D01*
X1290574Y230411D01*
X1290016Y229569D01*
X1268080Y207633D01*
X1265760Y202031D01*
X1265760Y171315D01*
X1265574Y170361D01*
X1265016Y169519D01*
X1261756Y166259D01*
X1258300Y157915D01*
X1258300Y148885D01*
X1261756Y140542D01*
X1262476Y139821D01*
X1263019Y139016D01*
X1263220Y138025D01*
X1263220Y107531D01*
X1263042Y106596D01*
X1262490Y105749D01*
X1261652Y105184D01*
X1258896Y104043D01*
X1255323Y100470D01*
X1253390Y95802D01*
X1253390Y57730D01*
X1255323Y53062D01*
X1258896Y49490D01*
X1263564Y47556D01*
X1301636Y47556D01*
X1306304Y49490D01*
X1309877Y53062D01*
X1311810Y57730D01*
X1311810Y66340D01*
X1311960Y67198D01*
X1312484Y68063D01*
X1313304Y68654D01*
X1314289Y68879D01*
X1315285Y68701D01*
X1316132Y68150D01*
X1316697Y67312D01*
X1317250Y65975D01*
X1322609Y60616D01*
X1329611Y57716D01*
X1330900Y57716D01*
X1330900Y95816D01*
X1329611Y95816D01*
X1322609Y92916D01*
X1317250Y87557D01*
X1316697Y86221D01*
X1316230Y85485D01*
X1315415Y84887D01*
X1314431Y84654D01*
X1313434Y84824D01*
X1312583Y85368D01*
X1312011Y86202D01*
X1311810Y87193D01*
X1311810Y95802D01*
X1309877Y100470D01*
X1306304Y104043D01*
X1301636Y105976D01*
X1301320Y105976D01*
X1300404Y106147D01*
X1299553Y106692D01*
X1298981Y107525D01*
X1298780Y108516D01*
X1298780Y138025D01*
X1298966Y138979D01*
X1299524Y139821D01*
X1300244Y140542D01*
X1303700Y148885D01*
X1303700Y157915D01*
X1300244Y166259D01*
X1296984Y169519D01*
X1296441Y170324D01*
X1296240Y171315D01*
X1296240Y191635D01*
X1296426Y192589D01*
X1296984Y193431D01*
X1318920Y215367D01*
X1321240Y220969D01*
X1321240Y303031D01*
X1318920Y308633D01*
X1096633Y530920D01*
X1091031Y533240D01*
X710704Y533240D01*
X709807Y533404D01*
X708951Y533942D01*
X708373Y534771D01*
X708164Y535760D01*
X708357Y536752D01*
X709666Y539910D01*
X709666Y548941D01*
X706210Y557284D01*
X702950Y560544D01*
X702407Y561350D01*
X702206Y562340D01*
X702206Y627601D01*
X702391Y628554D01*
X702950Y629397D01*
X804669Y731116D01*
X805474Y731659D01*
X806465Y731860D01*
X1173385Y731860D01*
X1174339Y731674D01*
X1175181Y731116D01*
X1178442Y727856D01*
X1186785Y724400D01*
X1195815Y724400D01*
X1203028Y727388D01*
X1203980Y727581D01*
X1204972Y727388D01*
X1212185Y724400D01*
X1221215Y724400D01*
X1229559Y727856D01*
X1235944Y734242D01*
X1239400Y742585D01*
X1239400Y751615D01*
X1235944Y759959D01*
X1232684Y763219D01*
X1232141Y764024D01*
X1231940Y765015D01*
X1231940Y769331D01*
X1229620Y774933D01*
X1219633Y784920D01*
X1214031Y787240D01*
X788969Y787240D01*
X783367Y784920D01*
X667891Y669444D01*
X667086Y668901D01*
X666095Y668700D01*
X661485Y668700D01*
X653142Y665244D01*
X646756Y658859D01*
X643300Y650515D01*
X643300Y641485D01*
X646756Y633142D01*
X653142Y626756D01*
X661485Y623300D01*
X669186Y623300D01*
X670101Y623129D01*
X670953Y622584D01*
X671524Y621751D01*
X671726Y620760D01*
X671726Y562340D01*
X671540Y561387D01*
X670982Y560544D01*
X667722Y557284D01*
X664266Y548941D01*
X664266Y539910D01*
X665574Y536752D01*
X665766Y535861D01*
X665596Y534864D01*
X665052Y534013D01*
X664218Y533441D01*
X663227Y533240D01*
X658365Y533240D01*
X657411Y533426D01*
X656569Y533984D01*
X604984Y585569D01*
X604441Y586374D01*
X604240Y587365D01*
X604240Y669023D01*
X601920Y674624D01*
X547624Y728920D01*
X542023Y731240D01*
X456365Y731240D01*
X455411Y731426D01*
X454569Y731984D01*
X451589Y734964D01*
X451079Y735695D01*
X450846Y736679D01*
X451016Y737676D01*
X451560Y738527D01*
X452394Y739099D01*
X453385Y739300D01*
X461715Y739300D01*
X468928Y742288D01*
X469880Y742481D01*
X470872Y742288D01*
X478085Y739300D01*
X487115Y739300D01*
X495459Y742756D01*
X501844Y749142D01*
X505300Y757485D01*
X505300Y766515D01*
X501844Y774859D01*
X495459Y781244D01*
X487115Y784700D01*
X478085Y784700D01*
X470872Y781712D01*
X469920Y781519D01*
X468928Y781712D01*
X461715Y784700D01*
X452685Y784700D01*
X445472Y781712D01*
X444520Y781519D01*
X443528Y781712D01*
X436315Y784700D01*
X427285Y784700D01*
X420072Y781712D01*
X419120Y781519D01*
X418128Y781712D01*
X410915Y784700D01*
X401885Y784700D01*
X394672Y781712D01*
X393720Y781519D01*
X392728Y781712D01*
X385515Y784700D01*
X376485Y784700D01*
X369272Y781712D01*
X368320Y781519D01*
X367328Y781712D01*
X360115Y784700D01*
X351085Y784700D01*
X343872Y781712D01*
X342920Y781519D01*
X341928Y781712D01*
X334715Y784700D01*
X325685Y784700D01*
X318472Y781712D01*
X317520Y781519D01*
X316528Y781712D01*
X309315Y784700D01*
X300285Y784700D01*
X293072Y781712D01*
X292120Y781519D01*
X291128Y781712D01*
X283915Y784700D01*
X274885Y784700D01*
X267672Y781712D01*
X266720Y781519D01*
X265728Y781712D01*
X258515Y784700D01*
X249485Y784700D01*
X242272Y781712D01*
X241320Y781519D01*
X240328Y781712D01*
X233115Y784700D01*
X224085Y784700D01*
X216872Y781712D01*
X215920Y781519D01*
X214928Y781712D01*
X207715Y784700D01*
X198685Y784700D01*
X190342Y781244D01*
X183858Y774761D01*
X183072Y774226D01*
X182083Y774017D01*
X181090Y774210D01*
X180300Y774538D01*
X180300Y749462D01*
X181090Y749790D01*
X182022Y749983D01*
X183016Y749797D01*
X183858Y749239D01*
X187216Y745881D01*
X187759Y745076D01*
X187960Y744085D01*
X187960Y614769D01*
X190280Y609167D01*
X202367Y597080D01*
X207969Y594760D01*
X210685Y594760D01*
X211639Y594574D01*
X212481Y594016D01*
X215742Y590756D01*
X224085Y587300D01*
X233115Y587300D01*
X241459Y590756D01*
X247844Y597142D01*
X251300Y605485D01*
X251300Y614515D01*
X247844Y622859D01*
X241459Y629244D01*
X233115Y632700D01*
X224085Y632700D01*
X221952Y631817D01*
X221061Y631625D01*
X220064Y631794D01*
X219213Y632339D01*
X218641Y633173D01*
X218440Y634163D01*
X218440Y696875D01*
X218596Y697753D01*
X219128Y698613D01*
X219952Y699198D01*
X220940Y699415D01*
X221933Y699230D01*
X222776Y698671D01*
X238016Y683431D01*
X238559Y682626D01*
X238760Y681635D01*
X238760Y677415D01*
X238574Y676461D01*
X238016Y675619D01*
X234756Y672359D01*
X231300Y664015D01*
X231300Y654985D01*
X234756Y646642D01*
X241142Y640256D01*
X249485Y636800D01*
X258515Y636800D01*
X266859Y640256D01*
X273244Y646642D01*
X276700Y654985D01*
X276700Y664015D01*
X273244Y672359D01*
X269984Y675619D01*
X269441Y676424D01*
X269240Y677415D01*
X269240Y692031D01*
X266920Y697633D01*
X244584Y719969D01*
X244041Y720774D01*
X243840Y721765D01*
X243840Y737837D01*
X244004Y738733D01*
X244542Y739589D01*
X245371Y740168D01*
X246360Y740377D01*
X247352Y740183D01*
X249485Y739300D01*
X258515Y739300D01*
X265728Y742288D01*
X266680Y742481D01*
X267672Y742288D01*
X274885Y739300D01*
X283915Y739300D01*
X291128Y742288D01*
X292080Y742481D01*
X293072Y742288D01*
X300285Y739300D01*
X309315Y739300D01*
X316528Y742288D01*
X317480Y742481D01*
X318472Y742288D01*
X325685Y739300D01*
X334715Y739300D01*
X341928Y742288D01*
X342880Y742481D01*
X343872Y742288D01*
X351085Y739300D01*
X360115Y739300D01*
X367328Y742288D01*
X368280Y742481D01*
X369272Y742288D01*
X376485Y739300D01*
X385515Y739300D01*
X392728Y742288D01*
X393680Y742481D01*
X394672Y742288D01*
X401885Y739300D01*
X410915Y739300D01*
X413048Y740183D01*
X413939Y740375D01*
X414936Y740206D01*
X415787Y739661D01*
X416359Y738827D01*
X416560Y737837D01*
X416560Y730169D01*
X418880Y724567D01*
X440367Y703080D01*
X445969Y700760D01*
X531626Y700760D01*
X532580Y700574D01*
X533422Y700016D01*
X573016Y660422D01*
X573559Y659617D01*
X573760Y658626D01*
X573760Y629921D01*
X573596Y629024D01*
X573058Y628168D01*
X572229Y627590D01*
X571240Y627381D01*
X570248Y627574D01*
X565115Y629700D01*
X564097Y629700D01*
X563144Y629886D01*
X562301Y630444D01*
X518172Y674573D01*
X511637Y677280D01*
X377575Y677280D01*
X376621Y677466D01*
X375779Y678024D01*
X375059Y678744D01*
X366715Y682200D01*
X357685Y682200D01*
X349342Y678744D01*
X342956Y672359D01*
X339500Y664015D01*
X339500Y654985D01*
X342956Y646642D01*
X348680Y640917D01*
X349207Y640149D01*
X349424Y639162D01*
X349239Y638168D01*
X348680Y637325D01*
X344453Y633098D01*
X343666Y632563D01*
X342677Y632354D01*
X341685Y632547D01*
X341315Y632700D01*
X332285Y632700D01*
X323942Y629244D01*
X317556Y622859D01*
X314100Y614515D01*
X314100Y605485D01*
X317556Y597142D01*
X323942Y590756D01*
X332285Y587300D01*
X341315Y587300D01*
X349659Y590756D01*
X351533Y592631D01*
X352357Y593181D01*
X356572Y594927D01*
X402621Y640976D01*
X403426Y641519D01*
X404417Y641720D01*
X499683Y641720D01*
X500636Y641534D01*
X501479Y640976D01*
X537156Y605299D01*
X537699Y604494D01*
X537900Y603503D01*
X537900Y602485D01*
X541356Y594142D01*
X542076Y593421D01*
X542619Y592616D01*
X542820Y591625D01*
X542820Y573375D01*
X542634Y572421D01*
X542076Y571579D01*
X541356Y570859D01*
X537900Y562515D01*
X537900Y553485D01*
X541356Y545142D01*
X547742Y538756D01*
X552008Y536989D01*
X552832Y536438D01*
X694739Y394531D01*
X695249Y393799D01*
X695482Y392816D01*
X695312Y391819D01*
X694768Y390967D01*
X693934Y390396D01*
X692943Y390195D01*
X473587Y390195D01*
X472652Y390373D01*
X471805Y390924D01*
X471240Y391763D01*
X468488Y398407D01*
X446142Y420753D01*
X439607Y423460D01*
X203240Y423460D01*
X202324Y423631D01*
X201473Y424176D01*
X200901Y425009D01*
X200700Y426000D01*
X200700Y431960D01*
X200871Y432876D01*
X201416Y433727D01*
X202249Y434299D01*
X203240Y434500D01*
X207715Y434500D01*
X214928Y437488D01*
X215880Y437681D01*
X216872Y437488D01*
X224085Y434500D01*
X233115Y434500D01*
X240328Y437488D01*
X241280Y437681D01*
X242272Y437488D01*
X249485Y434500D01*
X258515Y434500D01*
X265728Y437488D01*
X266680Y437681D01*
X267672Y437488D01*
X274885Y434500D01*
X283915Y434500D01*
X291128Y437488D01*
X292080Y437681D01*
X293072Y437488D01*
X300285Y434500D01*
X309315Y434500D01*
X316528Y437488D01*
X317480Y437681D01*
X318472Y437488D01*
X325685Y434500D01*
X334715Y434500D01*
X341928Y437488D01*
X342880Y437681D01*
X343872Y437488D01*
X351085Y434500D01*
X360115Y434500D01*
X367328Y437488D01*
X368280Y437681D01*
X369272Y437488D01*
X376485Y434500D01*
X385515Y434500D01*
X392728Y437488D01*
X393680Y437681D01*
X394672Y437488D01*
X401885Y434500D01*
X410915Y434500D01*
X418128Y437488D01*
X419080Y437681D01*
X420072Y437488D01*
X427285Y434500D01*
X436315Y434500D01*
X443528Y437488D01*
X444480Y437681D01*
X445472Y437488D01*
X452685Y434500D01*
X461715Y434500D01*
X468928Y437488D01*
X469880Y437681D01*
X470872Y437488D01*
X478085Y434500D01*
X487115Y434500D01*
X495459Y437956D01*
X501844Y444342D01*
X505300Y452685D01*
X505300Y461715D01*
X501844Y470059D01*
X495459Y476444D01*
X487115Y479900D01*
X478085Y479900D01*
X470872Y476912D01*
X469920Y476719D01*
X468928Y476912D01*
X461715Y479900D01*
X452685Y479900D01*
X445472Y476912D01*
X444520Y476719D01*
X443528Y476912D01*
X436315Y479900D01*
X427285Y479900D01*
X420072Y476912D01*
X419120Y476719D01*
X418128Y476912D01*
X410915Y479900D01*
X401885Y479900D01*
X394672Y476912D01*
X393720Y476719D01*
X392728Y476912D01*
X385515Y479900D01*
X376485Y479900D01*
X369272Y476912D01*
X368320Y476719D01*
X367328Y476912D01*
X360115Y479900D01*
X351085Y479900D01*
X343872Y476912D01*
X342920Y476719D01*
X341928Y476912D01*
X334715Y479900D01*
X325685Y479900D01*
X318472Y476912D01*
X317520Y476719D01*
X316528Y476912D01*
X309315Y479900D01*
X300285Y479900D01*
X293072Y476912D01*
X292120Y476719D01*
X291128Y476912D01*
X283915Y479900D01*
X274885Y479900D01*
X272752Y479017D01*
X271861Y478825D01*
X270864Y478994D01*
X270013Y479539D01*
X269441Y480373D01*
X269240Y481363D01*
X269240Y501810D01*
X269426Y502763D01*
X269984Y503606D01*
X274440Y508062D01*
X277896Y516405D01*
X277896Y523680D01*
X278066Y524596D01*
X278611Y525447D01*
X279445Y526019D01*
X280436Y526220D01*
X479491Y526220D01*
X485093Y528540D01*
X497920Y541367D01*
X500240Y546969D01*
X500240Y596431D01*
X497920Y602033D01*
X480033Y619920D01*
X474431Y622240D01*
X470315Y622240D01*
X469361Y622426D01*
X468519Y622984D01*
X465259Y626244D01*
X456915Y629700D01*
X447885Y629700D01*
X439542Y626244D01*
X433156Y619859D01*
X429700Y611515D01*
X429700Y602485D01*
X433156Y594142D01*
X439542Y587756D01*
X446565Y584847D01*
X447316Y584366D01*
X447907Y583546D01*
X448132Y582561D01*
X447955Y581566D01*
X447403Y580718D01*
X446565Y580153D01*
X439542Y577244D01*
X436281Y573984D01*
X435476Y573441D01*
X434485Y573240D01*
X212969Y573240D01*
X207367Y570920D01*
X190080Y553633D01*
X187760Y548031D01*
X187760Y481446D01*
X187596Y480549D01*
X187058Y479694D01*
X186229Y479115D01*
X185240Y478906D01*
X184248Y479099D01*
X182315Y479900D01*
X173285Y479900D01*
X166072Y476912D01*
X165120Y476719D01*
X164128Y476912D01*
X156915Y479900D01*
X147885Y479900D01*
X139542Y476444D01*
X133058Y469961D01*
X132272Y469426D01*
X131283Y469217D01*
X130290Y469410D01*
X129500Y469738D01*
X129500Y454700D01*
X124500Y454700D01*
X124500Y469738D01*
X123710Y469410D01*
X122778Y469217D01*
X121784Y469403D01*
X120942Y469961D01*
X114459Y476444D01*
X106115Y479900D01*
X97085Y479900D01*
X88742Y476444D01*
X82356Y470059D01*
X78900Y461715D01*
X78900Y452685D01*
X82356Y444342D01*
X83076Y443621D01*
X83619Y442816D01*
X83820Y441825D01*
X83820Y419880D01*
X86527Y413345D01*
X109265Y390607D01*
X115800Y387900D01*
X212722Y387900D01*
X213261Y387842D01*
X214187Y387435D01*
X214880Y386699D01*
X215232Y385752D01*
X215185Y384742D01*
X214749Y383830D01*
X214337Y383465D01*
X214341Y383462D01*
X209375Y378496D01*
X206031Y372704D01*
X204300Y366244D01*
X204300Y359556D01*
X206031Y353096D01*
X209375Y347304D01*
X211176Y345503D01*
X211719Y344698D01*
X211920Y343707D01*
X211920Y303763D01*
X214627Y297228D01*
X376128Y135727D01*
X382663Y133020D01*
X487743Y133020D01*
X488621Y132864D01*
X489481Y132332D01*
X490066Y131508D01*
X490283Y130521D01*
X490098Y129527D01*
X489539Y128684D01*
X474486Y113630D01*
X473017Y110084D01*
X472494Y109289D01*
X471661Y108717D01*
X470670Y108516D01*
X467983Y108516D01*
X463315Y106583D01*
X459742Y103010D01*
X457809Y98342D01*
X457809Y55190D01*
X459742Y50522D01*
X463315Y46950D01*
X467983Y45016D01*
X511135Y45016D01*
X515803Y46950D01*
X519073Y50220D01*
X520173Y50866D01*
X521180Y50945D01*
X522139Y50624D01*
X528104Y47180D01*
X536179Y45016D01*
X544539Y45016D01*
X552614Y47180D01*
X559854Y51360D01*
X565765Y57271D01*
X569364Y63506D01*
X569712Y63974D01*
X570536Y64558D01*
X571524Y64775D01*
X572517Y64590D01*
X573360Y64032D01*
X578929Y58463D01*
X586864Y55176D01*
X588659Y55176D01*
X588659Y98356D01*
X586864Y98356D01*
X578929Y95069D01*
X573360Y89501D01*
X572904Y89139D01*
X571956Y88787D01*
X570946Y88833D01*
X570034Y89269D01*
X569364Y90027D01*
X565765Y96261D01*
X559854Y102172D01*
X552614Y106352D01*
X544539Y108516D01*
X536179Y108516D01*
X528104Y106352D01*
X522139Y102909D01*
X520910Y102569D01*
X519916Y102754D01*
X519073Y103312D01*
X518561Y103824D01*
X518034Y104592D01*
X517817Y105580D01*
X518003Y106574D01*
X518561Y107416D01*
X526273Y115128D01*
X528980Y121663D01*
X528980Y136839D01*
X529166Y137793D01*
X529525Y138335D01*
X532900Y146484D01*
X532900Y155116D01*
X529596Y163092D01*
X523492Y169196D01*
X515516Y172500D01*
X506884Y172500D01*
X498748Y169130D01*
X498230Y168781D01*
X497239Y168580D01*
X394617Y168580D01*
X393664Y168766D01*
X392821Y169324D01*
X248224Y313921D01*
X247681Y314726D01*
X247480Y315717D01*
X247480Y343707D01*
X247666Y344660D01*
X248224Y345503D01*
X250025Y347304D01*
X253369Y353096D01*
X255100Y359556D01*
X255100Y366244D01*
X253369Y372704D01*
X250025Y378496D01*
X245232Y383289D01*
X244970Y383480D01*
X244372Y384295D01*
X244139Y385279D01*
X244309Y386276D01*
X244854Y387127D01*
X245687Y387699D01*
X246678Y387900D01*
X427654Y387900D01*
X428607Y387714D01*
X429450Y387156D01*
X434891Y381715D01*
X435433Y380910D01*
X435635Y379919D01*
X435635Y368878D01*
X438341Y362343D01*
X451007Y349678D01*
X451542Y348891D01*
X451751Y347902D01*
X451557Y346910D01*
X451500Y346771D01*
X451500Y337879D01*
X454516Y330597D01*
X454710Y329645D01*
X454516Y328653D01*
X451500Y321371D01*
X451500Y312479D01*
X454903Y304264D01*
X461191Y297976D01*
X469406Y294573D01*
X497602Y294573D01*
X505817Y297976D01*
X512105Y304264D01*
X515508Y312479D01*
X515508Y321371D01*
X512492Y328653D01*
X512298Y329605D01*
X512492Y330597D01*
X515508Y337879D01*
X515508Y346771D01*
X513706Y351123D01*
X513514Y352014D01*
X513683Y353010D01*
X514228Y353862D01*
X515062Y354433D01*
X516052Y354635D01*
X654156Y354635D01*
X655052Y354471D01*
X655908Y353933D01*
X656487Y353104D01*
X656696Y352115D01*
X656502Y351123D01*
X654700Y346771D01*
X654700Y337879D01*
X654757Y337741D01*
X654950Y336809D01*
X654765Y335815D01*
X654207Y334973D01*
X614902Y295668D01*
X614078Y295117D01*
X607142Y292244D01*
X600756Y285859D01*
X597300Y277515D01*
X597300Y268485D01*
X600756Y260142D01*
X607142Y253756D01*
X615485Y250300D01*
X624515Y250300D01*
X632859Y253756D01*
X639244Y260142D01*
X642700Y268485D01*
X642700Y272124D01*
X642886Y273078D01*
X643444Y273920D01*
X665389Y295865D01*
X666176Y296400D01*
X667165Y296609D01*
X668157Y296416D01*
X672606Y294573D01*
X700802Y294573D01*
X709017Y297976D01*
X715305Y304264D01*
X718708Y312479D01*
X718708Y321371D01*
X715692Y328653D01*
X715498Y329605D01*
X715692Y330597D01*
X718708Y337879D01*
X718708Y346771D01*
X716906Y351123D01*
X716714Y352014D01*
X716883Y353010D01*
X717428Y353862D01*
X718262Y354433D01*
X719252Y354635D01*
X745169Y354635D01*
X746122Y354449D01*
X746965Y353891D01*
X832376Y268479D01*
X832919Y267674D01*
X833120Y266683D01*
X833120Y237490D01*
X832949Y236574D01*
X832404Y235723D01*
X831571Y235151D01*
X830580Y234950D01*
X829324Y234950D01*
X824656Y233017D01*
X821083Y229444D01*
X819150Y224776D01*
X819150Y181624D01*
X821083Y176956D01*
X824656Y173383D01*
X829324Y171450D01*
X830580Y171450D01*
X831496Y171279D01*
X832347Y170734D01*
X832919Y169901D01*
X833120Y168910D01*
X833120Y163357D01*
X832964Y162479D01*
X832432Y161619D01*
X831608Y161034D01*
X830621Y160817D01*
X829627Y161003D01*
X828784Y161561D01*
X809844Y180501D01*
X809301Y181306D01*
X809172Y181943D01*
X805796Y190092D01*
X799692Y196196D01*
X791716Y199500D01*
X783084Y199500D01*
X775108Y196196D01*
X769004Y190092D01*
X765700Y182116D01*
X765700Y173484D01*
X769004Y165508D01*
X775108Y159404D01*
X783244Y156034D01*
X783856Y155914D01*
X784699Y155356D01*
X828202Y111853D01*
X828721Y111103D01*
X828946Y110118D01*
X828768Y109122D01*
X828217Y108275D01*
X827378Y107710D01*
X824656Y106583D01*
X821083Y103010D01*
X819150Y98342D01*
X819150Y71213D01*
X818964Y70260D01*
X818406Y69417D01*
X818313Y69324D01*
X817508Y68781D01*
X816517Y68580D01*
X801361Y68580D01*
X800407Y68766D01*
X799866Y69125D01*
X791716Y72500D01*
X783084Y72500D01*
X775108Y69196D01*
X769004Y63092D01*
X765700Y55116D01*
X765700Y46484D01*
X769004Y38508D01*
X775108Y32404D01*
X783084Y29100D01*
G37*
G36*
X97085Y739300D02*
X106115Y739300D01*
X113328Y742288D01*
X114280Y742481D01*
X115272Y742288D01*
X122485Y739300D01*
X131515Y739300D01*
X138728Y742288D01*
X139680Y742481D01*
X140672Y742288D01*
X147885Y739300D01*
X156915Y739300D01*
X165259Y742756D01*
X171742Y749239D01*
X172528Y749774D01*
X173518Y749983D01*
X174510Y749790D01*
X175300Y749462D01*
X175300Y774538D01*
X174510Y774210D01*
X173578Y774017D01*
X172584Y774203D01*
X171742Y774761D01*
X165259Y781244D01*
X156915Y784700D01*
X147885Y784700D01*
X140672Y781712D01*
X139720Y781519D01*
X138728Y781712D01*
X131515Y784700D01*
X122485Y784700D01*
X115272Y781712D01*
X114320Y781519D01*
X113328Y781712D01*
X106115Y784700D01*
X97085Y784700D01*
X88742Y781244D01*
X82356Y774859D01*
X78900Y766515D01*
X78900Y757485D01*
X82356Y749142D01*
X88742Y742756D01*
X97085Y739300D01*
G37*
G36*
X1193800Y658360D02*
X1202352Y658360D01*
X1203840Y659848D01*
X1203840Y659894D01*
X1203996Y660771D01*
X1204528Y661632D01*
X1205352Y662216D01*
X1206340Y662433D01*
X1207333Y662248D01*
X1208176Y661690D01*
X1209597Y660269D01*
X1214200Y658362D01*
X1214200Y683438D01*
X1209597Y681531D01*
X1208176Y680110D01*
X1207445Y679600D01*
X1206461Y679368D01*
X1205464Y679537D01*
X1204613Y680082D01*
X1204041Y680916D01*
X1203840Y681906D01*
X1203840Y681952D01*
X1202352Y683440D01*
X1193800Y683440D01*
X1193800Y658360D01*
G37*
G36*
X1178760Y673400D02*
X1188800Y673400D01*
X1188800Y683440D01*
X1180248Y683440D01*
X1178760Y681952D01*
X1178760Y673400D01*
G37*
G36*
X1219200Y673400D02*
X1229238Y673400D01*
X1227331Y678003D01*
X1223803Y681531D01*
X1219200Y683438D01*
X1219200Y673400D01*
G37*
G36*
X1219200Y668400D02*
X1219200Y658362D01*
X1223803Y660269D01*
X1227331Y663797D01*
X1229238Y668400D01*
X1219200Y668400D01*
G37*
G36*
X1180248Y658360D02*
X1188800Y658360D01*
X1188800Y668400D01*
X1178760Y668400D01*
X1178760Y659848D01*
X1180248Y658360D01*
G37*
G36*
X1303584Y554300D02*
X1312216Y554300D01*
X1320192Y557604D01*
X1326296Y563708D01*
X1329600Y571684D01*
X1329600Y580316D01*
X1326296Y588292D01*
X1320192Y594396D01*
X1312216Y597700D01*
X1303584Y597700D01*
X1295608Y594396D01*
X1289504Y588292D01*
X1286200Y580316D01*
X1286200Y571684D01*
X1289504Y563708D01*
X1295608Y557604D01*
X1303584Y554300D01*
G37*
G36*
X1259600Y578500D02*
X1268555Y578500D01*
X1266883Y582537D01*
X1263637Y585783D01*
X1259600Y587455D01*
X1259600Y578500D01*
G37*
G36*
X1245645Y578500D02*
X1254600Y578500D01*
X1254600Y587455D01*
X1250563Y585783D01*
X1247317Y582537D01*
X1245645Y578500D01*
G37*
G36*
X1259600Y573500D02*
X1259600Y564545D01*
X1263637Y566217D01*
X1266883Y569463D01*
X1268555Y573500D01*
X1259600Y573500D01*
G37*
G36*
X1250563Y566217D02*
X1254600Y564545D01*
X1254600Y573500D01*
X1245645Y573500D01*
X1247317Y569463D01*
X1250563Y566217D01*
G37*
G36*
X1303584Y440300D02*
X1312216Y440300D01*
X1320192Y443604D01*
X1326296Y449708D01*
X1329600Y457684D01*
X1329600Y466316D01*
X1326296Y474292D01*
X1320192Y480396D01*
X1312216Y483700D01*
X1303584Y483700D01*
X1295608Y480396D01*
X1289504Y474292D01*
X1286200Y466316D01*
X1286200Y457684D01*
X1289504Y449708D01*
X1295608Y443604D01*
X1303584Y440300D01*
G37*
G36*
X1245645Y464500D02*
X1254600Y464500D01*
X1254600Y473455D01*
X1250563Y471783D01*
X1247317Y468537D01*
X1245645Y464500D01*
G37*
G36*
X1259600Y464500D02*
X1268555Y464500D01*
X1266883Y468537D01*
X1263637Y471783D01*
X1259600Y473455D01*
X1259600Y464500D01*
G37*
G36*
X1250563Y452217D02*
X1254600Y450545D01*
X1254600Y459500D01*
X1245645Y459500D01*
X1247317Y455463D01*
X1250563Y452217D01*
G37*
G36*
X1259600Y459500D02*
X1259600Y450545D01*
X1263637Y452217D01*
X1266883Y455463D01*
X1268555Y459500D01*
X1259600Y459500D01*
G37*
G36*
X34460Y365400D02*
X47200Y365400D01*
X47200Y378140D01*
X46669Y378140D01*
X41067Y375820D01*
X36780Y371533D01*
X34460Y365931D01*
X34460Y365400D01*
G37*
G36*
X52200Y365400D02*
X64940Y365400D01*
X64940Y365931D01*
X62620Y371533D01*
X58333Y375820D01*
X52731Y378140D01*
X52200Y378140D01*
X52200Y365400D01*
G37*
G36*
X370353Y318300D02*
X377647Y318300D01*
X384692Y320188D01*
X391008Y323834D01*
X396166Y328992D01*
X399812Y335308D01*
X401700Y342353D01*
X401700Y349647D01*
X399812Y356692D01*
X396166Y363008D01*
X391008Y368166D01*
X384692Y371812D01*
X377647Y373700D01*
X370353Y373700D01*
X363308Y371812D01*
X356992Y368166D01*
X351834Y363008D01*
X348188Y356692D01*
X346300Y349647D01*
X346300Y342353D01*
X348188Y335308D01*
X351834Y328992D01*
X356992Y323834D01*
X363308Y320188D01*
X370353Y318300D01*
G37*
G36*
X46669Y347660D02*
X47200Y347660D01*
X47200Y360400D01*
X34460Y360400D01*
X34460Y359869D01*
X36780Y354267D01*
X41067Y349980D01*
X46669Y347660D01*
G37*
G36*
X52200Y347660D02*
X52731Y347660D01*
X58333Y349980D01*
X62620Y354267D01*
X64940Y359869D01*
X64940Y360400D01*
X52200Y360400D01*
X52200Y347660D01*
G37*
G36*
X486004Y243225D02*
X505317Y243225D01*
X503492Y247631D01*
X500062Y251061D01*
X495581Y252917D01*
X486004Y252917D01*
X486004Y243225D01*
G37*
G36*
X689204Y243225D02*
X708517Y243225D01*
X706692Y247631D01*
X703262Y251061D01*
X698781Y252917D01*
X689204Y252917D01*
X689204Y243225D01*
G37*
G36*
X664891Y243225D02*
X684204Y243225D01*
X684204Y252917D01*
X674627Y252917D01*
X670146Y251061D01*
X666716Y247631D01*
X664891Y243225D01*
G37*
G36*
X461691Y243225D02*
X481004Y243225D01*
X481004Y252917D01*
X471427Y252917D01*
X466946Y251061D01*
X463516Y247631D01*
X461691Y243225D01*
G37*
G36*
X775945Y231100D02*
X784900Y231100D01*
X784900Y240055D01*
X780863Y238383D01*
X777617Y235137D01*
X775945Y231100D01*
G37*
G36*
X789900Y231100D02*
X798855Y231100D01*
X797183Y235137D01*
X793937Y238383D01*
X789900Y240055D01*
X789900Y231100D01*
G37*
G36*
X664891Y217825D02*
X708517Y217825D01*
X706692Y222231D01*
X703262Y225661D01*
X703220Y225678D01*
X702469Y226159D01*
X701878Y226979D01*
X701653Y227964D01*
X701830Y228960D01*
X702382Y229807D01*
X703220Y230372D01*
X703262Y230389D01*
X706692Y233819D01*
X708517Y238225D01*
X664891Y238225D01*
X666716Y233819D01*
X670146Y230389D01*
X670188Y230372D01*
X670939Y229891D01*
X671530Y229071D01*
X671755Y228086D01*
X671578Y227091D01*
X671026Y226243D01*
X670188Y225678D01*
X670146Y225661D01*
X666716Y222231D01*
X664891Y217825D01*
G37*
G36*
X461691Y217825D02*
X505317Y217825D01*
X503492Y222231D01*
X500062Y225661D01*
X500020Y225678D01*
X499269Y226159D01*
X498678Y226979D01*
X498453Y227964D01*
X498630Y228960D01*
X499182Y229807D01*
X500020Y230372D01*
X500062Y230389D01*
X503492Y233819D01*
X505317Y238225D01*
X461691Y238225D01*
X463516Y233819D01*
X466946Y230389D01*
X466988Y230372D01*
X467739Y229891D01*
X468330Y229071D01*
X468555Y228086D01*
X468378Y227091D01*
X467826Y226243D01*
X466988Y225678D01*
X466946Y225661D01*
X463516Y222231D01*
X461691Y217825D01*
G37*
G36*
X1201353Y181300D02*
X1208647Y181300D01*
X1215692Y183188D01*
X1222008Y186834D01*
X1227166Y191992D01*
X1230812Y198308D01*
X1232700Y205353D01*
X1232700Y212647D01*
X1230812Y219692D01*
X1227166Y226008D01*
X1222008Y231166D01*
X1215692Y234812D01*
X1208647Y236700D01*
X1201353Y236700D01*
X1194308Y234812D01*
X1187992Y231166D01*
X1182834Y226008D01*
X1179188Y219692D01*
X1177300Y212647D01*
X1177300Y205353D01*
X1179188Y198308D01*
X1182834Y191992D01*
X1187992Y186834D01*
X1194308Y183188D01*
X1201353Y181300D01*
G37*
G36*
X789900Y226100D02*
X789900Y217145D01*
X793937Y218817D01*
X797183Y222063D01*
X798855Y226100D01*
X789900Y226100D01*
G37*
G36*
X780863Y218817D02*
X784900Y217145D01*
X784900Y226100D01*
X775945Y226100D01*
X777617Y222063D01*
X780863Y218817D01*
G37*
G36*
X955000Y205700D02*
X974090Y205700D01*
X974090Y207495D01*
X970803Y215430D01*
X964730Y221503D01*
X956795Y224790D01*
X955000Y224790D01*
X955000Y205700D01*
G37*
G36*
X689204Y203133D02*
X698781Y203133D01*
X703262Y204989D01*
X706692Y208419D01*
X708517Y212825D01*
X689204Y212825D01*
X689204Y203133D01*
G37*
G36*
X674627Y203133D02*
X684204Y203133D01*
X684204Y212825D01*
X664891Y212825D01*
X666716Y208419D01*
X670146Y204989D01*
X674627Y203133D01*
G37*
G36*
X471427Y203133D02*
X481004Y203133D01*
X481004Y212825D01*
X461691Y212825D01*
X463516Y208419D01*
X466946Y204989D01*
X471427Y203133D01*
G37*
G36*
X486004Y203133D02*
X495581Y203133D01*
X500062Y204989D01*
X503492Y208419D01*
X505317Y212825D01*
X486004Y212825D01*
X486004Y203133D01*
G37*
G36*
X1124700Y197200D02*
X1133655Y197200D01*
X1131983Y201237D01*
X1128737Y204483D01*
X1124700Y206155D01*
X1124700Y197200D01*
G37*
G36*
X1110745Y197200D02*
X1119700Y197200D01*
X1119700Y206155D01*
X1115663Y204483D01*
X1112417Y201237D01*
X1110745Y197200D01*
G37*
G36*
X955000Y181610D02*
X956795Y181610D01*
X964730Y184897D01*
X970803Y190970D01*
X974090Y198905D01*
X974090Y200700D01*
X955000Y200700D01*
X955000Y181610D01*
G37*
G36*
X1115663Y184917D02*
X1119700Y183245D01*
X1119700Y192200D01*
X1110745Y192200D01*
X1112417Y188163D01*
X1115663Y184917D01*
G37*
G36*
X1124700Y192200D02*
X1124700Y183245D01*
X1128737Y184917D01*
X1131983Y188163D01*
X1133655Y192200D01*
X1124700Y192200D01*
G37*
G36*
X640764Y47556D02*
X678836Y47556D01*
X683504Y49490D01*
X687077Y53062D01*
X689010Y57730D01*
X689010Y66340D01*
X689160Y67198D01*
X689684Y68063D01*
X690504Y68654D01*
X691489Y68879D01*
X692485Y68701D01*
X693332Y68150D01*
X693897Y67312D01*
X694450Y65975D01*
X699809Y60616D01*
X706811Y57716D01*
X708100Y57716D01*
X708100Y95816D01*
X706811Y95816D01*
X699809Y92916D01*
X694450Y87557D01*
X693897Y86221D01*
X693430Y85485D01*
X692615Y84887D01*
X691631Y84654D01*
X690634Y84824D01*
X689783Y85368D01*
X689211Y86202D01*
X689010Y87193D01*
X689010Y95802D01*
X687077Y100470D01*
X683504Y104043D01*
X679148Y105847D01*
X678353Y106369D01*
X677781Y107203D01*
X677580Y108194D01*
X677580Y152737D01*
X675293Y158257D01*
X675100Y159229D01*
X675100Y159916D01*
X671796Y167892D01*
X665692Y173996D01*
X657716Y177300D01*
X649084Y177300D01*
X641108Y173996D01*
X635004Y167892D01*
X631700Y159916D01*
X631700Y151284D01*
X635004Y143308D01*
X641276Y137036D01*
X641819Y136230D01*
X642020Y135239D01*
X642020Y108194D01*
X641842Y107259D01*
X641290Y106412D01*
X640452Y105847D01*
X636096Y104043D01*
X632523Y100470D01*
X630590Y95802D01*
X630590Y57730D01*
X632523Y53062D01*
X636096Y49490D01*
X640764Y47556D01*
G37*
G36*
X706700Y158100D02*
X715655Y158100D01*
X713983Y162137D01*
X710737Y165383D01*
X706700Y167055D01*
X706700Y158100D01*
G37*
G36*
X692745Y158100D02*
X701700Y158100D01*
X701700Y167055D01*
X697663Y165383D01*
X694417Y162137D01*
X692745Y158100D01*
G37*
G36*
X564500Y153300D02*
X573455Y153300D01*
X571783Y157337D01*
X568537Y160583D01*
X564500Y162255D01*
X564500Y153300D01*
G37*
G36*
X550545Y153300D02*
X559500Y153300D01*
X559500Y162255D01*
X555463Y160583D01*
X552217Y157337D01*
X550545Y153300D01*
G37*
G36*
X697663Y145817D02*
X701700Y144145D01*
X701700Y153100D01*
X692745Y153100D01*
X694417Y149063D01*
X697663Y145817D01*
G37*
G36*
X706700Y153100D02*
X706700Y144145D01*
X710737Y145817D01*
X713983Y149063D01*
X715655Y153100D01*
X706700Y153100D01*
G37*
G36*
X555463Y141017D02*
X559500Y139345D01*
X559500Y148300D01*
X550545Y148300D01*
X552217Y144263D01*
X555463Y141017D01*
G37*
G36*
X564500Y148300D02*
X564500Y139345D01*
X568537Y141017D01*
X571783Y144263D01*
X573455Y148300D01*
X564500Y148300D01*
G37*
G36*
X789900Y104100D02*
X798855Y104100D01*
X797183Y108137D01*
X793937Y111383D01*
X789900Y113055D01*
X789900Y104100D01*
G37*
G36*
X775945Y104100D02*
X784900Y104100D01*
X784900Y113055D01*
X780863Y111383D01*
X777617Y108137D01*
X775945Y104100D01*
G37*
G36*
X789900Y99100D02*
X789900Y90145D01*
X793937Y91817D01*
X797183Y95063D01*
X798855Y99100D01*
X789900Y99100D01*
G37*
G36*
X780863Y91817D02*
X784900Y90145D01*
X784900Y99100D01*
X775945Y99100D01*
X777617Y95063D01*
X780863Y91817D01*
G37*
G36*
X955000Y79266D02*
X974090Y79266D01*
X974090Y81061D01*
X970803Y88996D01*
X964730Y95069D01*
X956795Y98356D01*
X955000Y98356D01*
X955000Y79266D01*
G37*
G36*
X593659Y79266D02*
X612749Y79266D01*
X612749Y81061D01*
X609462Y88996D01*
X603388Y95069D01*
X595453Y98356D01*
X593659Y98356D01*
X593659Y79266D01*
G37*
G36*
X1186000Y79266D02*
X1205090Y79266D01*
X1205090Y81061D01*
X1201803Y88996D01*
X1195730Y95069D01*
X1187795Y98356D01*
X1186000Y98356D01*
X1186000Y79266D01*
G37*
G36*
X1335900Y79266D02*
X1352450Y79266D01*
X1352450Y80555D01*
X1349550Y87557D01*
X1344191Y92916D01*
X1337189Y95816D01*
X1335900Y95816D01*
X1335900Y79266D01*
G37*
G36*
X713100Y79266D02*
X729650Y79266D01*
X729650Y80555D01*
X726750Y87557D01*
X721391Y92916D01*
X714389Y95816D01*
X713100Y95816D01*
X713100Y79266D01*
G37*
G36*
X1335900Y57716D02*
X1337189Y57716D01*
X1344191Y60616D01*
X1349550Y65975D01*
X1352450Y72977D01*
X1352450Y74266D01*
X1335900Y74266D01*
X1335900Y57716D01*
G37*
G36*
X1186000Y55176D02*
X1187795Y55176D01*
X1195730Y58463D01*
X1201803Y64536D01*
X1205090Y72472D01*
X1205090Y74266D01*
X1186000Y74266D01*
X1186000Y55176D01*
G37*
G36*
X955000Y55176D02*
X956795Y55176D01*
X964730Y58463D01*
X970803Y64536D01*
X974090Y72472D01*
X974090Y74266D01*
X955000Y74266D01*
X955000Y55176D01*
G37*
G36*
X713100Y57716D02*
X714389Y57716D01*
X721391Y60616D01*
X726750Y65975D01*
X729650Y72977D01*
X729650Y74266D01*
X713100Y74266D01*
X713100Y57716D01*
G37*
G36*
X593659Y55176D02*
X595453Y55176D01*
X603388Y58463D01*
X609462Y64536D01*
X612749Y72472D01*
X612749Y74266D01*
X593659Y74266D01*
X593659Y55176D01*
G37*
%LPD*%
D10*
X355600Y64800D02*
X355600Y36800D01*
X316000Y36800D02*
X316000Y64800D01*
D11*
X659800Y76766D03*
D12*
X710600Y76766D03*
D13*
X489559Y76766D03*
D14*
X540359Y76766D03*
X591159Y76766D03*
D15*
X1122200Y194700D03*
X1071400Y194700D03*
X787400Y228600D03*
X787400Y177800D03*
X787400Y101600D03*
X787400Y50800D03*
X653400Y155600D03*
X704200Y155600D03*
X562000Y150800D03*
X511200Y150800D03*
D13*
X850900Y76766D03*
D14*
X901700Y76766D03*
X952500Y76766D03*
D13*
X850900Y203200D03*
D14*
X901700Y203200D03*
X952500Y203200D03*
D16*
X109700Y26900D03*
D17*
X169700Y26900D03*
X49700Y362900D03*
X229700Y362900D03*
D18*
X254000Y659500D03*
X362200Y659500D03*
X228600Y610000D03*
X336800Y610000D03*
D13*
X1031100Y76766D03*
D14*
X1081900Y76766D03*
X1132700Y76766D03*
X1183500Y76766D03*
D18*
X101600Y457200D03*
X127000Y457200D03*
X152400Y457200D03*
X177800Y457200D03*
X203200Y457200D03*
X228600Y457200D03*
X254000Y457200D03*
X279400Y457200D03*
X304800Y457200D03*
X330200Y457200D03*
X355600Y457200D03*
X381000Y457200D03*
X406400Y457200D03*
X431800Y457200D03*
X457200Y457200D03*
X482600Y457200D03*
X101600Y762000D03*
X127000Y762000D03*
X152400Y762000D03*
X177800Y762000D03*
X203200Y762000D03*
X228600Y762000D03*
X254000Y762000D03*
X279400Y762000D03*
X304800Y762000D03*
X330200Y762000D03*
X355600Y762000D03*
X381000Y762000D03*
X406400Y762000D03*
X431800Y762000D03*
X457200Y762000D03*
X482600Y762000D03*
D19*
X1191300Y670900D03*
D18*
X1191300Y747100D03*
X1216700Y670900D03*
X1216700Y747100D03*
X452400Y558000D03*
X560600Y558000D03*
X452400Y607000D03*
X560600Y607000D03*
D20*
X677052Y342325D02*
X696356Y342325D01*
X696356Y316925D02*
X677052Y316925D01*
X677052Y240725D02*
X696356Y240725D01*
X696356Y215325D02*
X677052Y215325D01*
X493156Y342325D02*
X473852Y342325D01*
X473852Y316925D02*
X493156Y316925D01*
X493156Y240725D02*
X473852Y240725D01*
X473852Y215325D02*
X493156Y215325D01*
D15*
X1257100Y576000D03*
X1307900Y576000D03*
X1257100Y462000D03*
X1307900Y462000D03*
D11*
X1282600Y76766D03*
D12*
X1333400Y76766D03*
D18*
X1281000Y153400D03*
X1281000Y261600D03*
D21*
X483504Y342325D02*
X453415Y372415D01*
X483504Y342325D02*
X483504Y316925D01*
X824934Y50800D02*
X850900Y76766D01*
X824934Y50800D02*
X787400Y50800D01*
X850900Y76766D02*
X850900Y114300D01*
X850900Y203200D01*
X787400Y177800D02*
X850900Y114300D01*
X742000Y372415D02*
X453415Y372415D01*
X742000Y372415D02*
X753585Y372415D01*
X812500Y313500D01*
X850900Y275100D01*
X850900Y203200D01*
X1031100Y154400D02*
X1031100Y76766D01*
X1031100Y154400D02*
X1031100Y193000D01*
X1031100Y232900D01*
X950500Y313500D01*
X812500Y313500D01*
X1031100Y154400D02*
X1071400Y194700D01*
X1099700Y261600D02*
X1281000Y261600D01*
X1099700Y261600D02*
X1031100Y193000D01*
X742000Y372415D02*
X560600Y553815D01*
X560600Y558000D01*
X560600Y607000D01*
X396000Y659500D02*
X362200Y659500D01*
X396000Y659500D02*
X508100Y659500D01*
X560600Y607000D01*
X346500Y610000D02*
X336800Y610000D01*
X346500Y610000D02*
X396000Y659500D01*
X119337Y405680D02*
X101600Y423417D01*
X101600Y457200D01*
X119337Y405680D02*
X436070Y405680D01*
X453415Y388336D02*
X453415Y372415D01*
X453415Y388336D02*
X436070Y405680D01*
D22*
X901700Y288300D02*
X901700Y203200D01*
X901700Y288300D02*
X901000Y289000D01*
D18*
X901000Y289000D03*
X178000Y429540D03*
D22*
X177800Y429740D01*
X177800Y457200D01*
X901700Y135700D02*
X901700Y76766D01*
X901700Y135700D02*
X903000Y137000D01*
D18*
X903000Y137000D03*
X138000Y425000D03*
D22*
X152400Y439400D01*
X152400Y457200D01*
X203200Y617800D02*
X203200Y762000D01*
X203200Y617800D02*
X211000Y610000D01*
X228600Y610000D01*
X1081900Y161100D02*
X1081900Y76766D01*
X1081900Y161100D02*
X1081000Y162000D01*
D18*
X1081000Y162000D03*
D22*
X228600Y714400D02*
X228600Y762000D01*
X228600Y714400D02*
X254000Y689000D01*
X254000Y659500D01*
X1132700Y135300D02*
X1132700Y76766D01*
X1132700Y135300D02*
X1131000Y137000D01*
D18*
X1131000Y137000D03*
D21*
X1281000Y78366D02*
X1282600Y76766D01*
X1281000Y78366D02*
X1281000Y153400D01*
D22*
X1281000Y199000D01*
X1306000Y224000D01*
X1306000Y300000D01*
X1088000Y518000D01*
X651000Y518000D01*
X589000Y580000D01*
X589000Y665991D01*
X538991Y716000D01*
X449000Y716000D01*
X431800Y733200D01*
X431800Y762000D01*
D23*
X109700Y88700D02*
X109700Y26900D01*
X109700Y88700D02*
X159000Y138000D01*
X324000Y138000D01*
X355600Y106400D01*
X355600Y50800D01*
X169700Y59700D02*
X169700Y26900D01*
X169700Y59700D02*
X204000Y94000D01*
X309000Y94000D01*
X316000Y87000D01*
X316000Y50800D01*
D21*
X489559Y76766D02*
X489559Y103559D01*
X511200Y125200D01*
X511200Y150800D01*
X229700Y307300D02*
X229700Y362900D01*
X229700Y307300D02*
X386200Y150800D01*
X511200Y150800D01*
X591159Y121641D02*
X591159Y76766D01*
X591159Y121641D02*
X562000Y150800D01*
X562000Y187000D01*
X533675Y215325D01*
X483504Y215325D01*
X508275Y240725D02*
X533675Y215325D01*
X508275Y240725D02*
X483504Y240725D01*
X533675Y215325D02*
X637675Y215325D01*
X686704Y215325D01*
X686704Y240725D02*
X581000Y240725D01*
X508275Y240725D01*
X710600Y138000D02*
X710600Y76766D01*
X710600Y138000D02*
X710600Y149200D01*
X704200Y155600D01*
X710600Y138000D02*
X736300Y112300D01*
X747000Y101600D01*
X787400Y101600D01*
X662000Y191000D02*
X637675Y215325D01*
X662000Y191000D02*
X697400Y155600D01*
X704200Y155600D01*
X715000Y191000D02*
X662000Y191000D01*
X715000Y191000D02*
X752600Y228600D01*
X787400Y228600D01*
X736300Y112300D02*
X736300Y45700D01*
X757000Y25000D01*
X935000Y25000D01*
X952500Y42500D01*
X952500Y76766D01*
X963000Y25000D02*
X935000Y25000D01*
X963000Y25000D02*
X1166000Y25000D01*
X1183500Y42500D01*
X1183500Y76766D01*
X1166000Y25000D02*
X1316000Y25000D01*
X1334000Y43000D01*
X1334000Y76166D01*
X1333400Y76766D01*
X1122200Y189800D02*
X1122200Y194700D01*
X1122200Y189800D02*
X1183500Y128500D01*
X1183500Y76766D01*
X980000Y42000D02*
X963000Y25000D01*
X980000Y42000D02*
X980000Y138000D01*
X952500Y165500D01*
X952500Y203200D01*
X1333400Y76766D02*
X1333400Y339600D01*
X1257100Y415900D01*
X1257100Y462000D01*
X1333400Y482600D02*
X1333400Y339600D01*
X1333400Y482600D02*
X1257100Y558900D01*
X1257100Y576000D01*
X1333400Y609600D02*
X1333400Y482600D01*
X1333400Y609600D02*
X1272100Y670900D01*
X1216700Y670900D01*
X1191300Y670900D01*
X70500Y488000D02*
X70500Y415000D01*
X70500Y488000D02*
X70500Y552000D01*
X70500Y598500D01*
X177800Y705800D01*
X177800Y762000D01*
X70500Y552000D02*
X127000Y495500D01*
X127000Y457200D01*
X264606Y387680D02*
X371093Y281193D01*
X264606Y387680D02*
X97820Y387680D01*
X540532Y281193D02*
X581000Y240725D01*
X540532Y281193D02*
X371093Y281193D01*
X70500Y488000D02*
X49700Y467200D01*
X49700Y362900D01*
X97820Y387680D02*
X70500Y415000D01*
D22*
X799100Y747100D02*
X1191300Y747100D01*
X452400Y558000D02*
X216000Y558000D01*
X203000Y545000D01*
X203000Y457400D01*
X203200Y457200D01*
D18*
X686966Y544426D03*
D22*
X686966Y634966D02*
X799100Y747100D01*
X686966Y634966D02*
X686966Y544426D01*
X1216700Y747100D02*
X1216700Y766300D01*
X1211000Y772000D01*
X792000Y772000D01*
X666000Y646000D01*
D18*
X666000Y646000D03*
D22*
X485000Y593400D02*
X471400Y607000D01*
X452400Y607000D01*
X485000Y593400D02*
X485000Y550000D01*
X239069Y541460D02*
X228600Y530991D01*
X228600Y457200D01*
X239069Y541460D02*
X476460Y541460D01*
X485000Y550000D01*
D21*
X686704Y342325D02*
X686704Y316925D01*
X686704Y342325D02*
X620000Y275621D01*
X620000Y273000D01*
D18*
X620000Y273000D03*
D21*
X659800Y149200D02*
X659800Y76766D01*
X659800Y149200D02*
X653400Y155600D01*
D18*
X255196Y520920D03*
D22*
X254000Y519724D02*
X254000Y457200D01*
X254000Y519724D02*
X255196Y520920D01*
M02*
