G04 EAGLE Gerber RS-274X export*
G75*
%MOMM*%
%FSLAX34Y34*%
%LPD*%
%INSoldermask Top*%
%IPPOS*%
%AMOC8*
5,1,8,0,0,1.08239X$1,22.5*%
G01*
G04 Define Apertures*
%ADD10C,3.203200*%
%ADD11C,3.003200*%
%ADD12R,3.505200X3.505200*%
%ADD13C,3.505200*%
%ADD14R,4.013200X4.013200*%
%ADD15C,4.013200*%
%ADD16C,2.003200*%
%ADD17R,2.743200X2.743200*%
%ADD18C,2.743200*%
%ADD19C,2.203200*%
%ADD20R,2.203200X2.203200*%
%ADD21C,2.133600*%
%ADD22R,1.703200X1.103200*%
D10*
X38000Y766000D03*
X1314000Y764000D03*
X1205000Y209000D03*
X374000Y346000D03*
D11*
X355600Y64800D02*
X355600Y36800D01*
X316000Y36800D02*
X316000Y64800D01*
D12*
X659800Y76766D03*
D13*
X710600Y76766D03*
D14*
X489559Y76766D03*
D15*
X540359Y76766D03*
X591159Y76766D03*
D16*
X1122200Y194700D03*
X1071400Y194700D03*
X787400Y228600D03*
X787400Y177800D03*
X787400Y101600D03*
X787400Y50800D03*
X653400Y155600D03*
X704200Y155600D03*
X562000Y150800D03*
X511200Y150800D03*
D14*
X850900Y76766D03*
D15*
X901700Y76766D03*
X952500Y76766D03*
D14*
X850900Y203200D03*
D15*
X901700Y203200D03*
X952500Y203200D03*
D17*
X109700Y26900D03*
D18*
X169700Y26900D03*
X49700Y362900D03*
X229700Y362900D03*
D19*
X254000Y659500D03*
X362200Y659500D03*
X228600Y610000D03*
X336800Y610000D03*
D14*
X1031100Y76766D03*
D15*
X1081900Y76766D03*
X1132700Y76766D03*
X1183500Y76766D03*
D19*
X101600Y457200D03*
X127000Y457200D03*
X152400Y457200D03*
X177800Y457200D03*
X203200Y457200D03*
X228600Y457200D03*
X254000Y457200D03*
X279400Y457200D03*
X304800Y457200D03*
X330200Y457200D03*
X355600Y457200D03*
X381000Y457200D03*
X406400Y457200D03*
X431800Y457200D03*
X457200Y457200D03*
X482600Y457200D03*
X101600Y762000D03*
X127000Y762000D03*
X152400Y762000D03*
X177800Y762000D03*
X203200Y762000D03*
X228600Y762000D03*
X254000Y762000D03*
X279400Y762000D03*
X304800Y762000D03*
X330200Y762000D03*
X355600Y762000D03*
X381000Y762000D03*
X406400Y762000D03*
X431800Y762000D03*
X457200Y762000D03*
X482600Y762000D03*
D20*
X1191300Y670900D03*
D19*
X1191300Y747100D03*
X1216700Y670900D03*
X1216700Y747100D03*
X452400Y558000D03*
X560600Y558000D03*
X452400Y607000D03*
X560600Y607000D03*
D21*
X677052Y342325D02*
X696356Y342325D01*
X696356Y316925D02*
X677052Y316925D01*
X677052Y240725D02*
X696356Y240725D01*
X696356Y215325D02*
X677052Y215325D01*
X493156Y342325D02*
X473852Y342325D01*
X473852Y316925D02*
X493156Y316925D01*
X493156Y240725D02*
X473852Y240725D01*
X473852Y215325D02*
X493156Y215325D01*
D22*
X1307000Y502500D03*
X1307000Y535500D03*
X1258000Y502500D03*
X1258000Y535500D03*
X1307000Y390500D03*
X1307000Y423500D03*
X1258000Y390500D03*
X1258000Y423500D03*
D16*
X1257100Y576000D03*
X1307900Y576000D03*
X1257100Y462000D03*
X1307900Y462000D03*
D12*
X1282600Y76766D03*
D13*
X1333400Y76766D03*
D19*
X1281000Y153400D03*
X1281000Y261600D03*
X901000Y289000D03*
X178000Y429540D03*
X903000Y137000D03*
X138000Y425000D03*
X1081000Y162000D03*
X1131000Y137000D03*
X686966Y544426D03*
X666000Y646000D03*
X620000Y273000D03*
X255196Y520920D03*
M02*
