M48
;GenerationSoftware,Autodesk,EAGLE,9.7.0*%
;CreationDate,2025-04-05T21:10:05Z*%
FMAT,2
ICI,OFF
METRIC,TZ,000.000
T7C0.710
T6C0.900
T5C1.000
T4C1.100
T3C1.400
T2C1.780
T1C3.600
%
G90
M71
T1
X6200Y70600
X129200Y77600
X65000Y22700
T2
X35560Y5080
X31600Y5080
T3
X85090Y7620
X48956Y7733
X54036Y7733
X59116Y7733
X90170Y7620
X95250Y7620
X85090Y20320
X90170Y20320
X95250Y20320
T4
X67310Y7620
X115570Y31750
X120650Y31750
X110490Y7620
X120650Y7620
X105410Y7620
X55880Y35560
X60960Y35560
X115570Y7620
X72390Y7620
X105410Y20320
X110490Y20320
X115570Y20320
X120650Y20320
X105410Y31750
X110490Y31750
T5
X30300Y31700
X100100Y10800
X25600Y51300
X110500Y38800
X115600Y38700
X105800Y66300
X4970Y38390
X22970Y38390
X119130Y74710
X121670Y67090
X121670Y74710
X90300Y31700
X119130Y67090
X10970Y4790
X16970Y4790
T6
X20320Y61000
X90170Y63500
X87630Y63500
X85090Y63500
X82550Y63500
X80010Y63500
X77470Y63500
X72390Y63500
X36220Y61000
X22860Y76200
X10160Y45720
X12700Y45720
X15240Y45720
X42700Y55800
X58600Y55800
X42700Y60700
X22860Y65950
X38760Y65950
X58600Y60700
X17780Y45720
X20320Y45720
X22860Y45720
X25400Y45720
X27940Y45720
X30480Y45720
X33020Y45720
X35560Y45720
X38100Y45720
X40640Y45720
X43180Y45720
X45720Y45720
X48260Y45720
X10160Y76200
X12700Y76200
X15240Y76200
X17780Y76200
X20320Y76200
X74930Y63500
X25400Y76200
X27940Y76200
X30480Y76200
X33020Y76200
X35560Y76200
X38100Y76200
X40640Y76200
X43180Y76200
X45720Y76200
X48260Y76200
X72390Y55880
X74930Y55880
X77470Y55880
X80010Y55880
X82550Y55880
X85090Y55880
X87630Y55880
X90170Y55880
X92710Y55880
X92710Y63500
T7
X6690Y51300
X128330Y10120
X128330Y5040
X128270Y22860
X128270Y17780
X128270Y34290
X128270Y29210
X78740Y22860
X78740Y10160
X78740Y5080
X60960Y27940
X55880Y27940
X50800Y17780
X45720Y17780
X78740Y17780
X11770Y51300
M30