M48
;GenerationSoftware,Autodesk,EAGLE,9.7.0*%
;CreationDate,2025-06-11T18:07:01Z*%
FMAT,2
ICI,OFF
METRIC,TZ,000.000
T7C0.710
T6C0.900
T5C1.000
T4C1.100
T3C1.400
T2C1.780
T1C3.000
%
G90
M71
T1
X37400Y34600
X3800Y76600
X131400Y76400
X120500Y20900
T2
X35560Y5080
X31600Y5080
T3
X85090Y7677
X90170Y7677
X95250Y7677
X85090Y20320
X90170Y20320
X95250Y20320
X48956Y7677
X54036Y7677
X59116Y7677
T4
X65980Y7677
X71060Y7677
X103110Y7677
X108190Y7677
X113270Y7677
X118350Y7677
X133340Y7677
X128260Y7677
T5
X10970Y2690
X16970Y2690
X4970Y36290
X22970Y36290
X121670Y74710
X121670Y67090
X119130Y74710
X119130Y67090
T6
X17800Y42954
X90300Y13700
X13800Y42500
X108100Y16200
X113100Y13700
X68697Y54443
X66600Y64600
X62000Y27300
X25520Y52092
X90100Y28900
X48350Y24073
X48350Y21533
X128100Y15340
X128100Y26160
X25400Y65950
X36220Y65950
X22860Y61000
X33680Y61000
X10160Y45720
X12700Y45720
X15240Y45720
X17780Y45720
X20320Y45720
X22860Y45720
X25400Y45720
X27940Y45720
X30480Y45720
X33020Y45720
X35560Y45720
X38100Y45720
X40640Y45720
X43180Y45720
X45720Y45720
X48260Y45720
X10160Y76200
X12700Y76200
X15240Y76200
X17780Y76200
X20320Y76200
X22860Y76200
X25400Y76200
X27940Y76200
X30480Y76200
X33020Y76200
X35560Y76200
X38100Y76200
X40640Y76200
X43180Y76200
X45720Y76200
X48260Y76200
X45240Y55800
X56060Y55800
X45240Y60700
X56060Y60700
X68670Y34233
X68670Y31693
X68670Y24073
X68670Y21533
X48350Y34233
X48350Y31693
T7
X112220Y19470
X107140Y19470
X78740Y22860
X78740Y17780
X70420Y15560
X65340Y15560
X125710Y57600
X130790Y57600
X125710Y46200
X130790Y46200
X78740Y5080
X78740Y10160
X51120Y15080
X56200Y15080
M30