G04 EAGLE Gerber RS-274X export*
G75*
%MOMM*%
%FSLAX34Y34*%
%LPD*%
%INBottom Copper*%
%IPPOS*%
%AMOC8*
5,1,8,0,0,1.08239X$1,22.5*%
G01*
G04 Define Apertures*
%ADD10R,1.800000X1.800000*%
%ADD11C,1.800000*%
%ADD12R,1.778000X1.778000*%
%ADD13C,1.778000*%
%ADD14C,2.000000*%
%ADD15R,1.930400X1.930400*%
%ADD16C,1.930400*%
%ADD17R,2.184400X2.184400*%
%ADD18C,2.184400*%
%ADD19R,2.010000X2.010000*%
%ADD20C,2.010000*%
%ADD21C,1.900000*%
%ADD22R,1.676400X1.676400*%
%ADD23C,1.676400*%
%ADD24C,1.778000*%
%ADD25C,1.590000*%
%ADD26C,1.300000*%
%ADD27C,0.500000*%
%ADD28C,1.400000*%
D10*
X490800Y301400D03*
D11*
X490800Y326400D03*
D10*
X473000Y579200D03*
D11*
X473000Y604200D03*
D10*
X463875Y508000D03*
D11*
X488875Y508000D03*
D12*
X375800Y390450D03*
D13*
X375800Y494050D03*
D12*
X311900Y489550D03*
D13*
X311900Y385950D03*
D14*
X324500Y330200D03*
X432700Y330200D03*
X432700Y290300D03*
X324500Y290300D03*
X40000Y146350D03*
X40000Y254550D03*
D15*
X511100Y455200D03*
D16*
X485700Y455200D03*
X460300Y455200D03*
X434900Y455200D03*
X434900Y379000D03*
X460300Y379000D03*
X485700Y379000D03*
X511100Y379000D03*
D11*
X400400Y604000D03*
X349600Y604000D03*
D17*
X197500Y628000D03*
D18*
X272500Y628000D03*
D19*
X103000Y490000D03*
D20*
X128400Y490000D03*
X153800Y490000D03*
D19*
X257000Y278000D03*
D20*
X231600Y278000D03*
X206200Y278000D03*
D21*
X139774Y428000D03*
X114374Y428000D03*
X88974Y428000D03*
X139774Y243000D03*
X114374Y243000D03*
X88974Y243000D03*
D22*
X76300Y390100D03*
D23*
X76300Y364700D03*
X76300Y339300D03*
X76300Y313900D03*
X155700Y313900D03*
X155700Y339300D03*
X155700Y364700D03*
X155700Y390100D03*
D22*
X375400Y544000D03*
D23*
X350000Y544000D03*
X324600Y544000D03*
D12*
X203000Y205800D03*
D13*
X203000Y102200D03*
D12*
X277000Y205800D03*
D13*
X277000Y102200D03*
D14*
X40000Y667600D03*
X40000Y559400D03*
X217000Y494100D03*
X217000Y385900D03*
X267000Y385900D03*
X267000Y494100D03*
X40000Y466600D03*
X40000Y358400D03*
D12*
X83000Y664050D03*
D13*
X83000Y560450D03*
D12*
X121000Y663800D03*
D13*
X121000Y560200D03*
D14*
X353400Y657000D03*
X461600Y657000D03*
X503000Y146350D03*
X503000Y254550D03*
D24*
X96300Y175890D02*
X96300Y158110D01*
X121700Y158110D02*
X121700Y175890D01*
X30000Y43890D02*
X30000Y26110D01*
X55400Y26110D02*
X55400Y43890D01*
X80800Y43890D02*
X80800Y26110D01*
X106200Y27110D02*
X106200Y44890D01*
X445000Y43890D02*
X445000Y26110D01*
X470400Y26110D02*
X470400Y43890D01*
X495800Y43890D02*
X495800Y26110D01*
X521200Y27110D02*
X521200Y44890D01*
X226000Y43890D02*
X226000Y26110D01*
X251400Y26110D02*
X251400Y43890D01*
X276800Y43890D02*
X276800Y26110D01*
X302200Y27110D02*
X302200Y44890D01*
X271048Y741110D02*
X271048Y758890D01*
X245648Y758890D02*
X245648Y741110D01*
X30000Y741110D02*
X30000Y758890D01*
X55400Y758890D02*
X55400Y741110D01*
X80800Y741110D02*
X80800Y758890D01*
X106200Y759890D02*
X106200Y742110D01*
X445000Y741110D02*
X445000Y758890D01*
X470400Y758890D02*
X470400Y741110D01*
X495800Y741110D02*
X495800Y758890D01*
X521200Y759890D02*
X521200Y742110D01*
D12*
X391700Y37500D03*
D13*
X366300Y37500D03*
D12*
X378700Y750000D03*
D13*
X353300Y750000D03*
D12*
X155300Y37500D03*
D13*
X180700Y37500D03*
D25*
X350000Y122050D02*
X350000Y137950D01*
X375400Y137950D02*
X375400Y122050D01*
X400800Y122050D02*
X400800Y137950D01*
X426200Y138950D02*
X426200Y123050D01*
X350000Y202050D02*
X350000Y217950D01*
X375400Y217950D02*
X375400Y202050D01*
X400800Y202050D02*
X400800Y217950D01*
X426200Y218950D02*
X426200Y203050D01*
D26*
X206200Y278000D02*
X156000Y227800D01*
X156000Y182000D01*
X141000Y167000D01*
X121700Y167000D01*
D27*
X156000Y149200D02*
X203000Y102200D01*
X156000Y149200D02*
X156000Y182000D01*
D26*
X105200Y35000D02*
X30000Y35000D01*
X105200Y35000D02*
X106200Y36000D01*
X521200Y36000D02*
X532000Y46800D01*
X532000Y155000D01*
X494500Y192500D01*
X476000Y211000D01*
X426200Y211000D01*
X456500Y192500D02*
X494500Y192500D01*
X456500Y192500D02*
X426200Y162200D01*
X426200Y131000D01*
X445000Y35000D02*
X520200Y35000D01*
X521200Y36000D01*
D28*
X271048Y750000D02*
X303048Y782000D01*
X387000Y782000D01*
X407000Y620000D02*
X407000Y610600D01*
X400400Y604000D01*
X407000Y610600D02*
X407000Y583000D01*
X407000Y562000D01*
X350000Y210000D02*
X350000Y130000D01*
X350000Y98000D01*
X350000Y61000D01*
X324000Y35000D01*
D27*
X271048Y689000D02*
X271048Y750000D01*
X271048Y689000D02*
X271048Y629453D01*
X272500Y628000D01*
X375400Y551400D02*
X407000Y583000D01*
X375400Y551400D02*
X375400Y544000D01*
X486500Y532500D02*
X489000Y530000D01*
X489000Y508125D01*
X488875Y508000D01*
X489000Y530000D02*
X511100Y507900D01*
X511100Y494000D01*
X511100Y455200D01*
X535000Y470100D02*
X511100Y494000D01*
X535000Y470100D02*
X535000Y351000D01*
X510000Y326000D01*
X491200Y326000D01*
X490800Y326400D01*
X350000Y98000D02*
X366300Y81700D01*
X366300Y37500D01*
X210000Y35000D02*
X207000Y35000D01*
X183200Y35000D01*
X180700Y37500D01*
D26*
X207000Y35000D02*
X165000Y77000D01*
X139000Y77000D01*
X96300Y119700D01*
X96300Y126700D01*
X96300Y167000D01*
D27*
X76000Y147000D02*
X96300Y126700D01*
X76000Y147000D02*
X76000Y234026D01*
X78000Y232026D02*
X88974Y243000D01*
X78000Y232026D02*
X76300Y233726D01*
X76000Y234026D01*
X76300Y233726D02*
X76300Y274000D01*
X76300Y313900D01*
X96000Y293700D02*
X76300Y274000D01*
X96000Y293700D02*
X96000Y420974D01*
X88974Y428000D01*
X332048Y750000D02*
X353300Y750000D01*
X332048Y750000D02*
X271048Y689000D01*
D28*
X361587Y517464D02*
X350000Y505877D01*
X361587Y517464D02*
X389373Y517464D01*
X350000Y505877D02*
X350000Y210000D01*
D26*
X389373Y517464D02*
X407000Y535091D01*
X407000Y546000D01*
X407000Y562000D01*
D27*
X420500Y532500D02*
X486500Y532500D01*
X420500Y532500D02*
X407000Y546000D01*
D26*
X407000Y620000D02*
X419000Y632000D01*
X476000Y632000D01*
X521200Y677200D01*
X521200Y751000D01*
X324000Y35000D02*
X303200Y35000D01*
X302200Y36000D01*
X226000Y35000D02*
X210000Y35000D01*
X417000Y752000D02*
X387000Y782000D01*
X443000Y752000D02*
X445000Y750000D01*
X443000Y752000D02*
X417000Y752000D01*
X445000Y750000D02*
X446000Y751000D01*
X521200Y751000D01*
X303200Y35000D02*
X226000Y35000D01*
X245648Y750000D02*
X186000Y750000D01*
X151000Y750000D01*
X83000Y682000D02*
X83000Y664050D01*
X83000Y682000D02*
X151000Y750000D01*
X121000Y685000D02*
X121000Y663800D01*
X121000Y685000D02*
X159500Y723500D01*
X186000Y750000D01*
D27*
X349600Y604000D02*
X353400Y607800D01*
X353400Y657000D01*
X349600Y604000D02*
X221500Y604000D01*
X197500Y628000D01*
X159500Y648500D02*
X159500Y723500D01*
X159500Y648500D02*
X182000Y626000D01*
X195500Y626000D01*
X197500Y628000D01*
D26*
X151000Y750000D02*
X107200Y750000D01*
X106200Y751000D01*
X107200Y750000D02*
X30000Y750000D01*
D27*
X468600Y301400D02*
X490800Y301400D01*
X468600Y301400D02*
X460000Y310000D01*
X460000Y337000D01*
X460000Y378700D01*
X460300Y379000D01*
X460300Y400300D01*
X486000Y426000D01*
X486000Y454900D01*
X485700Y455200D01*
D14*
X392000Y358000D03*
D27*
X439000Y358000D01*
X460000Y337000D01*
D14*
X523000Y597000D03*
D27*
X480200Y597000D01*
X473000Y604200D01*
D14*
X436000Y552000D03*
D27*
X463200Y579200D02*
X473000Y579200D01*
X463200Y579200D02*
X436000Y552000D01*
X311900Y531300D02*
X311900Y489550D01*
X311900Y531300D02*
X324600Y544000D01*
X155700Y404700D02*
X155700Y390100D01*
X155700Y404700D02*
X192000Y441000D01*
X192000Y504000D01*
X201000Y513000D01*
X234000Y513000D01*
X244000Y503000D01*
X244000Y408900D01*
X267000Y385900D01*
X432000Y508000D02*
X463875Y508000D01*
X432000Y508000D02*
X428000Y504000D01*
D14*
X428000Y504000D03*
D27*
X155300Y37500D02*
X142500Y37500D01*
X40000Y140000D01*
X40000Y146350D01*
X277000Y205800D02*
X293600Y222400D01*
X324500Y253300D01*
X324500Y290300D01*
X219600Y222400D02*
X203000Y205800D01*
X219600Y222400D02*
X293600Y222400D01*
X414650Y455200D02*
X375800Y494050D01*
X414650Y455200D02*
X434900Y455200D01*
X171900Y313900D02*
X155700Y313900D01*
X171900Y313900D02*
X217000Y359000D01*
X217000Y385900D01*
X350000Y544000D02*
X350000Y559000D01*
X323000Y586000D01*
D14*
X323000Y586000D03*
D27*
X62000Y645600D02*
X40000Y667600D01*
X62000Y645600D02*
X62000Y491000D01*
X68500Y484500D01*
X114374Y438626D01*
X114374Y428000D01*
X76300Y390100D02*
X68500Y397900D01*
X68500Y484500D01*
X114374Y341374D02*
X114374Y243000D01*
X114374Y341374D02*
X137700Y364700D01*
X155700Y364700D01*
X217000Y439000D02*
X217000Y494100D01*
X217000Y439000D02*
X183000Y405000D01*
X183000Y377000D01*
X170700Y364700D02*
X155700Y364700D01*
X170700Y364700D02*
X183000Y377000D01*
X103000Y480000D02*
X103000Y490000D01*
X103000Y480000D02*
X133500Y449500D01*
X140000Y443000D01*
X140000Y428226D01*
X139774Y428000D01*
X133500Y449500D02*
X151500Y449500D01*
X176000Y474000D01*
X176000Y516000D01*
X190000Y530000D01*
X252000Y530000D01*
X268000Y514000D01*
X268000Y495100D01*
X267000Y494100D01*
X378700Y702300D02*
X378700Y750000D01*
X378700Y702300D02*
X424000Y657000D01*
X461600Y657000D01*
X391700Y50700D02*
X391700Y37500D01*
X391700Y50700D02*
X439000Y98000D01*
X491000Y98000D01*
X503000Y110000D01*
X503000Y146350D01*
D26*
X255410Y560200D02*
X121000Y560200D01*
X289024Y526586D02*
X289024Y361472D01*
X231600Y304048D01*
X231600Y278000D01*
X289024Y526586D02*
X255410Y560200D01*
X128400Y515050D02*
X83000Y560450D01*
X128400Y515050D02*
X128400Y490000D01*
M02*
