G04 EAGLE Gerber RS-274X export*
G75*
%MOMM*%
%FSLAX34Y34*%
%LPD*%
%INTop Copper*%
%IPPOS*%
%AMOC8*
5,1,8,0,0,1.08239X$1,22.5*%
G01*
G04 Define Apertures*
%ADD10R,1.800000X1.800000*%
%ADD11C,1.800000*%
%ADD12R,1.778000X1.778000*%
%ADD13C,1.778000*%
%ADD14C,2.000000*%
%ADD15R,1.930400X1.930400*%
%ADD16C,1.930400*%
%ADD17R,2.184400X2.184400*%
%ADD18C,2.184400*%
%ADD19R,2.010000X2.010000*%
%ADD20C,2.010000*%
%ADD21C,1.900000*%
%ADD22R,1.676400X1.676400*%
%ADD23C,1.676400*%
%ADD24C,1.778000*%
%ADD25C,1.590000*%
%ADD26C,1.300000*%
%ADD27C,0.500000*%
D10*
X490800Y301400D03*
D11*
X490800Y326400D03*
D10*
X473000Y579200D03*
D11*
X473000Y604200D03*
D10*
X463875Y508000D03*
D11*
X488875Y508000D03*
D12*
X375800Y390450D03*
D13*
X375800Y494050D03*
D12*
X311900Y489550D03*
D13*
X311900Y385950D03*
D14*
X324500Y330200D03*
X432700Y330200D03*
X432700Y290300D03*
X324500Y290300D03*
X40000Y146350D03*
X40000Y254550D03*
D15*
X511100Y455200D03*
D16*
X485700Y455200D03*
X460300Y455200D03*
X434900Y455200D03*
X434900Y379000D03*
X460300Y379000D03*
X485700Y379000D03*
X511100Y379000D03*
D11*
X400400Y604000D03*
X349600Y604000D03*
D17*
X197500Y628000D03*
D18*
X272500Y628000D03*
D19*
X103000Y490000D03*
D20*
X128400Y490000D03*
X153800Y490000D03*
D19*
X257000Y278000D03*
D20*
X231600Y278000D03*
X206200Y278000D03*
D21*
X139774Y428000D03*
X114374Y428000D03*
X88974Y428000D03*
X139774Y243000D03*
X114374Y243000D03*
X88974Y243000D03*
D22*
X76300Y390100D03*
D23*
X76300Y364700D03*
X76300Y339300D03*
X76300Y313900D03*
X155700Y313900D03*
X155700Y339300D03*
X155700Y364700D03*
X155700Y390100D03*
D22*
X375400Y544000D03*
D23*
X350000Y544000D03*
X324600Y544000D03*
D12*
X203000Y205800D03*
D13*
X203000Y102200D03*
D12*
X277000Y205800D03*
D13*
X277000Y102200D03*
D14*
X40000Y667600D03*
X40000Y559400D03*
X217000Y494100D03*
X217000Y385900D03*
X267000Y385900D03*
X267000Y494100D03*
X40000Y466600D03*
X40000Y358400D03*
D12*
X83000Y664050D03*
D13*
X83000Y560450D03*
D12*
X121000Y663800D03*
D13*
X121000Y560200D03*
D14*
X353400Y657000D03*
X461600Y657000D03*
X503000Y146350D03*
X503000Y254550D03*
D24*
X96300Y175890D02*
X96300Y158110D01*
X121700Y158110D02*
X121700Y175890D01*
X30000Y43890D02*
X30000Y26110D01*
X55400Y26110D02*
X55400Y43890D01*
X80800Y43890D02*
X80800Y26110D01*
X106200Y27110D02*
X106200Y44890D01*
X445000Y43890D02*
X445000Y26110D01*
X470400Y26110D02*
X470400Y43890D01*
X495800Y43890D02*
X495800Y26110D01*
X521200Y27110D02*
X521200Y44890D01*
X226000Y43890D02*
X226000Y26110D01*
X251400Y26110D02*
X251400Y43890D01*
X276800Y43890D02*
X276800Y26110D01*
X302200Y27110D02*
X302200Y44890D01*
X271048Y741110D02*
X271048Y758890D01*
X245648Y758890D02*
X245648Y741110D01*
X30000Y741110D02*
X30000Y758890D01*
X55400Y758890D02*
X55400Y741110D01*
X80800Y741110D02*
X80800Y758890D01*
X106200Y759890D02*
X106200Y742110D01*
X445000Y741110D02*
X445000Y758890D01*
X470400Y758890D02*
X470400Y741110D01*
X495800Y741110D02*
X495800Y758890D01*
X521200Y759890D02*
X521200Y742110D01*
D12*
X391700Y37500D03*
D13*
X366300Y37500D03*
D12*
X378700Y750000D03*
D13*
X353300Y750000D03*
D12*
X155300Y37500D03*
D13*
X180700Y37500D03*
D25*
X350000Y122050D02*
X350000Y137950D01*
X375400Y137950D02*
X375400Y122050D01*
X400800Y122050D02*
X400800Y137950D01*
X426200Y138950D02*
X426200Y123050D01*
X350000Y202050D02*
X350000Y217950D01*
X375400Y217950D02*
X375400Y202050D01*
X400800Y202050D02*
X400800Y217950D01*
X426200Y218950D02*
X426200Y203050D01*
D26*
X106200Y73200D02*
X106200Y36000D01*
X106200Y73200D02*
X166000Y133000D01*
X166000Y214800D01*
X206200Y255000D02*
X206200Y278000D01*
X206200Y255000D02*
X166000Y214800D01*
X106200Y36000D02*
X81800Y36000D01*
X80800Y35000D01*
X55400Y35000D01*
X30000Y35000D01*
X172400Y471400D02*
X153800Y490000D01*
X172400Y471400D02*
X184000Y459800D01*
X184000Y360000D01*
X184000Y348000D01*
X201000Y331000D01*
X250000Y331000D01*
X281000Y300000D01*
X309000Y235000D02*
X451000Y235000D01*
X470400Y215600D01*
X470400Y78000D01*
X470400Y35000D01*
D27*
X446200Y102200D02*
X277000Y102200D01*
X446200Y102200D02*
X470400Y78000D01*
X155700Y339300D02*
X76300Y339300D01*
X155700Y339300D02*
X163300Y339300D01*
X184000Y360000D01*
X40000Y502000D02*
X40000Y559400D01*
X40000Y502000D02*
X72000Y470000D01*
X171000Y470000D01*
X172400Y471400D01*
D26*
X281000Y263000D02*
X309000Y235000D01*
X281000Y263000D02*
X281000Y300000D01*
X445000Y35000D02*
X470400Y35000D01*
X495800Y35000D01*
X520200Y35000D01*
X521200Y36000D01*
X251400Y35000D02*
X226000Y35000D01*
X251400Y35000D02*
X276800Y35000D01*
X277800Y36000D01*
X302200Y36000D01*
X520200Y750000D02*
X521200Y751000D01*
X520200Y750000D02*
X495800Y750000D01*
X470400Y750000D01*
X445000Y750000D01*
X55400Y750000D02*
X30000Y750000D01*
X55400Y750000D02*
X80800Y750000D01*
X81800Y751000D01*
X106200Y751000D01*
D27*
X324500Y330200D02*
X364200Y330200D01*
X392000Y358000D01*
D14*
X392000Y358000D03*
D27*
X432700Y330200D02*
X432700Y290300D01*
X432700Y330200D02*
X456500Y354000D01*
X481000Y354000D01*
X485700Y358700D01*
X485700Y379000D01*
X460300Y455200D02*
X460300Y462300D01*
X481000Y483000D01*
X508000Y483000D01*
X523000Y498000D01*
X523000Y597000D01*
D14*
X523000Y597000D03*
D27*
X338000Y385950D02*
X311900Y385950D01*
X338000Y385950D02*
X371300Y385950D01*
X375800Y390450D01*
X338000Y385950D02*
X396000Y443950D01*
X396000Y512000D01*
X436000Y552000D01*
D14*
X436000Y552000D03*
D27*
X155700Y390100D02*
X135800Y410000D01*
X63000Y410000D01*
X38000Y435000D01*
X38000Y464600D01*
X40000Y466600D01*
X267000Y385900D02*
X287550Y406450D01*
X311900Y430800D01*
X311900Y489550D01*
D14*
X428000Y504000D03*
D27*
X410000Y486000D01*
X287550Y367450D02*
X297000Y358000D01*
X287550Y367450D02*
X287550Y406450D01*
X410000Y398226D02*
X410000Y486000D01*
X369774Y358000D02*
X297000Y358000D01*
X369774Y358000D02*
X410000Y398226D01*
X434900Y428200D02*
X434900Y455200D01*
X434900Y428200D02*
X450100Y413000D01*
X497000Y413000D01*
X511100Y398900D01*
X511100Y379000D01*
X434900Y403900D02*
X434900Y428200D01*
X434900Y403900D02*
X410000Y379000D01*
X410000Y321000D01*
X379300Y290300D01*
X324500Y290300D01*
X155700Y313900D02*
X130800Y289000D01*
X66000Y289000D01*
X55000Y300000D01*
X55000Y350000D01*
X69700Y364700D01*
X76300Y364700D01*
X217000Y385900D02*
X217000Y408000D01*
X290000Y481000D01*
D14*
X323000Y586000D03*
D27*
X290000Y553000D01*
X290000Y481000D01*
X192774Y308000D02*
X154887Y270113D01*
X139774Y255000D01*
X139774Y243000D01*
X192774Y308000D02*
X244000Y308000D01*
X258000Y294000D01*
X258000Y279000D01*
X257000Y278000D01*
X40000Y298000D02*
X40000Y358400D01*
X40000Y298000D02*
X67887Y270113D01*
X154887Y270113D01*
X40000Y254550D02*
X40000Y230000D01*
X55000Y215000D01*
X141000Y215000D01*
X168476Y242476D01*
X168476Y264180D01*
X202370Y298074D01*
X226926Y298074D01*
X231600Y293400D01*
X231600Y278000D01*
X458450Y254550D02*
X503000Y254550D01*
X458450Y254550D02*
X452000Y261000D01*
X320000Y261000D01*
X298500Y282500D01*
X209000Y351000D02*
X199000Y361000D01*
X199000Y490000D01*
X162000Y527000D01*
X116000Y527000D01*
X83000Y560000D01*
X83000Y560450D01*
X209000Y351000D02*
X281000Y351000D01*
X298500Y333500D01*
X298500Y282500D01*
M02*
