G04 EAGLE Gerber RS-274X export*
G75*
%MOMM*%
%FSLAX34Y34*%
%LPD*%
%INSoldermask Bottom*%
%IPPOS*%
%AMOC8*
5,1,8,0,0,1.08239X$1,22.5*%
G01*
G04 Define Apertures*
%ADD10C,3.203200*%
%ADD11R,2.003200X2.003200*%
%ADD12C,2.003200*%
%ADD13R,1.981200X1.981200*%
%ADD14C,1.981200*%
%ADD15C,2.203200*%
%ADD16R,2.133600X2.133600*%
%ADD17C,2.133600*%
%ADD18R,2.387600X2.387600*%
%ADD19C,2.387600*%
%ADD20R,2.213200X2.213200*%
%ADD21C,2.213200*%
%ADD22C,2.103200*%
%ADD23R,1.879600X1.879600*%
%ADD24C,1.879600*%
%ADD25C,1.981200*%
%ADD26C,1.793200*%
D10*
X332000Y696000D03*
X238000Y153000D03*
D11*
X490800Y301400D03*
D12*
X490800Y326400D03*
D11*
X473000Y579200D03*
D12*
X473000Y604200D03*
D11*
X463875Y508000D03*
D12*
X488875Y508000D03*
D13*
X375800Y390450D03*
D14*
X375800Y494050D03*
D13*
X311900Y489550D03*
D14*
X311900Y385950D03*
D15*
X324500Y330200D03*
X432700Y330200D03*
X432700Y290300D03*
X324500Y290300D03*
X40000Y146350D03*
X40000Y254550D03*
D16*
X511100Y455200D03*
D17*
X485700Y455200D03*
X460300Y455200D03*
X434900Y455200D03*
X434900Y379000D03*
X460300Y379000D03*
X485700Y379000D03*
X511100Y379000D03*
D12*
X400400Y604000D03*
X349600Y604000D03*
D18*
X197500Y628000D03*
D19*
X272500Y628000D03*
D20*
X103000Y490000D03*
D21*
X128400Y490000D03*
X153800Y490000D03*
D20*
X257000Y278000D03*
D21*
X231600Y278000D03*
X206200Y278000D03*
D22*
X139774Y428000D03*
X114374Y428000D03*
X88974Y428000D03*
X139774Y243000D03*
X114374Y243000D03*
X88974Y243000D03*
D23*
X76300Y390100D03*
D24*
X76300Y364700D03*
X76300Y339300D03*
X76300Y313900D03*
X155700Y313900D03*
X155700Y339300D03*
X155700Y364700D03*
X155700Y390100D03*
D23*
X375400Y544000D03*
D24*
X350000Y544000D03*
X324600Y544000D03*
D13*
X203000Y205800D03*
D14*
X203000Y102200D03*
D13*
X277000Y205800D03*
D14*
X277000Y102200D03*
D15*
X40000Y667600D03*
X40000Y559400D03*
X217000Y494100D03*
X217000Y385900D03*
X267000Y385900D03*
X267000Y494100D03*
X40000Y466600D03*
X40000Y358400D03*
D13*
X83000Y664050D03*
D14*
X83000Y560450D03*
D13*
X121000Y663800D03*
D14*
X121000Y560200D03*
D15*
X353400Y657000D03*
X461600Y657000D03*
X503000Y146350D03*
X503000Y254550D03*
D25*
X96300Y175890D02*
X96300Y158110D01*
X121700Y158110D02*
X121700Y175890D01*
X30000Y43890D02*
X30000Y26110D01*
X55400Y26110D02*
X55400Y43890D01*
X80800Y43890D02*
X80800Y26110D01*
X106200Y27110D02*
X106200Y44890D01*
X445000Y43890D02*
X445000Y26110D01*
X470400Y26110D02*
X470400Y43890D01*
X495800Y43890D02*
X495800Y26110D01*
X521200Y27110D02*
X521200Y44890D01*
X226000Y43890D02*
X226000Y26110D01*
X251400Y26110D02*
X251400Y43890D01*
X276800Y43890D02*
X276800Y26110D01*
X302200Y27110D02*
X302200Y44890D01*
X271048Y741110D02*
X271048Y758890D01*
X245648Y758890D02*
X245648Y741110D01*
X30000Y741110D02*
X30000Y758890D01*
X55400Y758890D02*
X55400Y741110D01*
X80800Y741110D02*
X80800Y758890D01*
X106200Y759890D02*
X106200Y742110D01*
X445000Y741110D02*
X445000Y758890D01*
X470400Y758890D02*
X470400Y741110D01*
X495800Y741110D02*
X495800Y758890D01*
X521200Y759890D02*
X521200Y742110D01*
D13*
X391700Y37500D03*
D14*
X366300Y37500D03*
D13*
X378700Y750000D03*
D14*
X353300Y750000D03*
D13*
X155300Y37500D03*
D14*
X180700Y37500D03*
D26*
X350000Y122050D02*
X350000Y137950D01*
X375400Y137950D02*
X375400Y122050D01*
X400800Y122050D02*
X400800Y137950D01*
X426200Y138950D02*
X426200Y123050D01*
X350000Y202050D02*
X350000Y217950D01*
X375400Y217950D02*
X375400Y202050D01*
X400800Y202050D02*
X400800Y217950D01*
X426200Y218950D02*
X426200Y203050D01*
D15*
X392000Y358000D03*
X523000Y597000D03*
X436000Y552000D03*
X428000Y504000D03*
X323000Y586000D03*
M02*
